<svg width="166" height="64" viewBox="0 0 166 64" fill="none" xmlns="http://www.w3.org/2000/svg">
<path d="M153.282 3.17047C153.895 2.48866 154.679 2.14775 155.634 2.14775C156.566 2.14775 157.35 2.46593 157.986 3.10229C158.623 3.73865 158.941 4.52275 158.941 5.45457C158.941 6.36366 158.623 7.14774 157.986 7.80684C157.327 8.4432 156.543 8.76138 155.634 8.76138C154.702 8.76138 153.918 8.4432 153.282 7.80684C152.645 7.17047 152.327 6.38638 152.327 5.45457C152.327 4.59093 152.645 3.82956 153.282 3.17047Z" fill="black"/>
<path d="M165.531 14.5227H163.281V39.0682H159.77V14.5227H157.008V39.0682H153.429V18.6818C153.429 15.1364 152.349 13.3637 150.19 13.3637C148.645 13.3637 147.565 14.875 146.951 17.8977C147.383 17.4659 147.883 17.25 148.451 17.25C149.951 17.25 151.065 18.4659 151.792 20.8977C152.292 22.5568 152.542 24.3637 152.542 26.3182C152.542 29.3864 152.27 32.0682 151.724 34.3637C150.815 38.1364 149.292 40.0227 147.156 40.0227C143.701 40.0227 141.974 35.8182 141.974 27.4091C141.974 23.3182 142.474 19.7387 143.474 16.6705C144.883 12.3068 147.122 10.125 150.19 10.125C153.395 10.125 155.258 10.9659 155.781 12.6477L156.156 10.7046H165.531V14.5227ZM148.588 28.3296C148.588 26.7159 148.474 25.1364 148.247 23.5909C147.974 21.6818 147.656 20.7273 147.292 20.7273C146.906 20.7273 146.622 21.4205 146.44 22.8068C146.349 23.4887 146.304 25.0682 146.304 27.5455C146.304 28.7727 146.406 30.2273 146.61 31.9091C146.906 34.2955 147.281 35.4887 147.735 35.4887C148.304 35.4887 148.588 33.1023 148.588 28.3296Z" fill="black"/>
<path d="M140.726 27.2046C140.726 29.8182 140.351 32.2727 139.601 34.5682C138.555 37.7727 136.987 39.375 134.896 39.375C134.282 39.375 133.714 39.1023 133.191 38.5568C132.373 39.2387 131.532 39.5796 130.669 39.5796C126.555 39.5796 124.464 36.0455 124.396 28.9773C124.351 25.2727 124.953 22.4205 126.203 20.4205V11.1477H138.373V14.0796H135.339V18.6818H136.635C138.044 18.6818 139.135 19.8182 139.907 22.0909C140.453 23.7273 140.726 25.4318 140.726 27.2046ZM131.726 18.6818V14.0796H129.714V18.8523L131.726 18.6818ZM131.726 33.4432V21.1364H130.941C130.01 21.1364 129.305 22.1818 128.828 24.2727C128.51 25.6591 128.351 27.0455 128.351 28.4318C128.351 33.4546 129.066 35.9659 130.498 35.9659C131.316 35.9659 131.726 35.125 131.726 33.4432ZM137.078 27.7841C137.078 26.625 136.964 25.3637 136.737 24C136.419 22 135.953 20.9773 135.339 20.9318V32.7273C135.339 33.9773 135.078 35.2727 134.555 36.6137C135.305 36.5 135.941 35.1818 136.464 32.6591C136.873 30.7046 137.078 29.0796 137.078 27.7841Z" fill="black"/>
<path d="M113.225 10.9091L113.327 14.1137L111.35 13.7046C108.577 13.1364 107.191 11.1591 107.191 7.77275C107.191 2.95456 109.657 0.545471 114.588 0.545471C119.929 0.545471 122.6 4.1932 122.6 11.4887V39.0682H118.713V11.7955C118.713 10.0227 118.452 8.38638 117.929 6.88638C117.225 4.86365 116.179 3.85229 114.793 3.85229C113.066 3.85229 111.929 4.3182 111.384 5.25002C111.088 5.75002 110.941 6.65911 110.941 7.97729C110.941 10.0682 111.702 11.0455 113.225 10.9091Z" fill="black"/>
<path d="M116.702 27.9887C116.702 31.3296 116.236 34.2273 115.304 36.6818C113.963 40.2046 111.907 41.9659 109.134 41.9659H102.145C100.577 41.9659 99.043 43.375 97.543 46.1932V39.4432C98.9748 38.7159 100.054 38.3523 100.782 38.3523C101.554 38.3523 102.691 38.4659 104.191 38.6932C105.713 38.8977 106.861 39 107.634 39C110.998 39 112.679 35.2841 112.679 27.8523C112.679 24.4432 112.168 22.4432 111.145 21.8523V31.1591C111.145 36.2046 109.304 38.7273 105.623 38.7273C101.873 38.7273 99.9976 35.3637 99.9976 28.6364C99.9976 24.7955 100.691 21.9887 102.077 20.2159V11.2159H114.179V14.0796H111.145V19.125H111.452C113.384 19.125 114.804 20.1932 115.713 22.3296C116.373 23.875 116.702 25.7614 116.702 27.9887ZM107.498 19.125V14.0796H105.384V19.125H107.498ZM107.498 32.7955V21.7159H105.963C104.668 21.7159 104.02 24.0909 104.02 28.8409C104.02 33.6364 104.77 36.0341 106.27 36.0341C107.088 36.0341 107.498 34.9546 107.498 32.7955Z" fill="black"/>
<path d="M97.9137 44.3182H89.9706C88.5842 47.2955 86.4478 48.7841 83.5615 48.7841C79.5387 48.7841 77.2887 46.3409 76.8115 41.4546H87.6865C88.7319 37.6591 89.2547 32.4205 89.2547 25.7387C89.2547 23.0341 89.0615 20.6137 88.6751 18.4773C88.2433 16.0682 87.6183 14.8637 86.8001 14.8637C86.5274 14.8637 86.2887 14.9659 86.0842 15.1705C86.2887 15.8977 86.391 16.8296 86.391 17.9659V39.1364H82.7774V17.5568C82.7774 15.6705 82.4706 14.7273 81.8569 14.7273C81.1297 14.7273 80.766 15.6705 80.766 17.5568V39H77.1524V18.1364C77.1524 16.4773 77.5047 14.9773 78.2092 13.6364C79.0728 11.9773 80.266 11.1477 81.7887 11.1477C83.2206 11.1477 84.2206 11.5227 84.7887 12.2727C85.6978 11.4773 86.641 11.0796 87.6183 11.0796C89.8228 11.0796 91.391 12.9546 92.3228 16.7046C92.9137 19.0682 93.2092 21.7955 93.2092 24.8864C93.2092 33.3409 92.5842 38.8637 91.3342 41.4546H94.3001V11.7273H97.9137V44.3182ZM86.6637 44.3182H81.4819C82.0501 45.8637 82.8683 46.6364 83.9365 46.6364C84.9365 46.6364 85.8456 45.8637 86.6637 44.3182Z" fill="black"/>
<path d="M74.9812 28.5682C74.9812 32.9318 74.2653 36.6137 72.8335 39.6137C70.9699 43.5 68.0835 45.5 64.1744 45.6137C60.4699 45.7273 57.5835 44.125 55.5153 40.8068C53.7653 38.0114 52.8903 34.6477 52.8903 30.7159C52.8903 22.8296 54.5721 18.125 57.9358 16.6023C58.2085 16.4887 58.4812 16.6477 58.7539 17.0796C59.0267 17.4887 59.163 17.8409 59.163 18.1364C59.163 18.2727 59.1062 18.3864 58.9926 18.4773C57.1289 20.3864 56.1971 23.8637 56.1971 28.9091C56.1971 37.6591 58.913 42.0341 64.3449 42.0341C66.913 42.0341 68.7767 40.2273 69.9358 36.6137C70.7085 34.2046 71.0949 31.3523 71.0949 28.0568C71.0949 24.0341 70.4699 21.8068 69.2199 21.375V31.875C69.2199 33.5796 68.7312 35.1477 67.7539 36.5796C66.6858 38.1932 65.3335 39 63.6971 39C61.5835 39 59.9471 37.75 58.788 35.25C57.8789 33.2955 57.4244 31.2046 57.4244 28.9773C57.4244 23.7046 58.3108 20.3296 60.0835 18.8523V11.2159H70.8903V14.1477H69.2199V18.1364H70.3108C72.1062 18.1364 73.4017 19.5227 74.1971 22.2955C74.7199 24.0909 74.9812 26.1818 74.9812 28.5682ZM65.4017 18.1364V14.1477H63.3221V18.1364H65.4017ZM65.4017 33.75V21.2727H64.3449C63.413 21.2727 62.6744 22.3864 62.1289 24.6137C61.7653 26.1818 61.5835 27.6364 61.5835 28.9773C61.5835 30.3409 61.7539 31.75 62.0949 33.2046C62.5949 35.2955 63.288 36.3409 64.1744 36.3409C64.9926 36.3409 65.4017 35.4773 65.4017 33.75Z" fill="black"/>
<path d="M39.727 3.17047C40.3406 2.48866 41.1247 2.14775 42.0792 2.14775C43.011 2.14775 43.7951 2.46593 44.4315 3.10229C45.0679 3.73865 45.386 4.52275 45.386 5.45457C45.386 6.36366 45.0679 7.14774 44.4315 7.80684C43.7724 8.4432 42.9883 8.76138 42.0792 8.76138C41.1474 8.76138 40.3633 8.4432 39.727 7.80684C39.0906 7.17047 38.7724 6.38638 38.7724 5.45457C38.7724 4.59093 39.0906 3.82956 39.727 3.17047Z" fill="black"/>
<path d="M51.5693 27.2046C51.5693 29.8182 51.1943 32.2727 50.4443 34.5682C49.3988 37.7727 47.8306 39.375 45.7397 39.375C45.1261 39.375 44.5579 39.1023 44.0352 38.5568C43.217 39.2387 42.3761 39.5796 41.5125 39.5796C37.3988 39.5796 35.3079 36.0455 35.2397 28.9773C35.1943 25.2727 35.7966 22.4205 37.0466 20.4205V11.1477H49.217V14.0796H46.1829V18.6818H47.4784C48.8875 18.6818 49.9784 19.8182 50.7511 22.0909C51.2966 23.7273 51.5693 25.4318 51.5693 27.2046ZM42.5693 18.6818V14.0796H40.5579V18.8523L42.5693 18.6818ZM42.5693 33.4432V21.1364H41.7852C40.8534 21.1364 40.1488 22.1818 39.6716 24.2727C39.3534 25.6591 39.1943 27.0455 39.1943 28.4318C39.1943 33.4546 39.9102 35.9659 41.342 35.9659C42.1602 35.9659 42.5693 35.125 42.5693 33.4432ZM47.9216 27.7841C47.9216 26.625 47.8079 25.3637 47.5807 24C47.2625 22 46.7966 20.9773 46.1829 20.9318V32.7273C46.1829 33.9773 45.9216 35.2727 45.3988 36.6137C46.1488 36.5 46.7852 35.1818 47.3079 32.6591C47.717 30.7046 47.9216 29.0796 47.9216 27.7841Z" fill="black"/>
<path d="M34.3235 14.1477H32.1758V39.1364H28.494V14.1477H26.4826V39.1364H22.7326V11.2159H34.3235V14.1477Z" fill="black"/>
<path d="M19.7369 39.2046H8.55508V36.8523C7.85053 38.625 6.9869 39.5114 5.96417 39.5114C4.10053 39.5114 2.69144 37.9773 1.7369 34.9091C0.918716 32.3182 0.532353 29.125 0.577807 25.3296C0.668716 15.7159 3.13463 10.9091 7.97553 10.9091C12.6801 10.9091 15.0324 15.6364 15.0324 25.0909C15.0324 29.5227 14.3846 33.125 13.0892 35.8977H15.9869V11.2159H19.7369V39.2046ZM11.3846 24.8864C11.3846 22 11.1346 19.5341 10.6346 17.4887C10.021 14.9887 9.1119 13.7387 7.90735 13.7387C6.52099 13.7387 5.4869 14.9546 4.80508 17.3864C5.19144 17.0227 5.57781 16.8409 5.96417 16.8409C7.4869 16.8409 8.58917 18.2727 9.27099 21.1364C9.70281 22.9318 9.91872 24.9546 9.91872 27.2046C9.91872 30.7046 9.56644 33.6023 8.8619 35.8977H9.91872C10.896 33.2159 11.3846 29.5455 11.3846 24.8864ZM6.27099 28.6364C6.27099 23.5 5.8619 20.9318 5.04372 20.9318C4.74826 20.9318 4.43008 22.8068 4.08917 26.5568V26.8977C4.08917 32.1932 4.60053 34.8409 5.62326 34.8409C6.05508 34.8409 6.27099 32.7727 6.27099 28.6364Z" fill="black"/>
<path d="M143.543 63V62.2617L144.498 62.0977V55.377L143.543 55.2129V54.4688H149.86V56.5196H148.934L148.805 55.3594H145.653V58.1367H148.799V59.0449H145.653V62.1328H148.993L149.122 60.9551H150.041V63H143.543Z" fill="black"/>
<path d="M135.953 63.1231C135.434 63.1231 134.934 63.0469 134.453 62.8946C133.973 62.7422 133.514 62.5078 133.076 62.1914V60.3692H133.973L134.166 61.711C134.42 61.8672 134.695 61.9883 134.992 62.0742C135.289 62.1602 135.609 62.2031 135.953 62.2031C136.344 62.2031 136.674 62.1446 136.943 62.0274C137.217 61.9063 137.426 61.7403 137.57 61.5293C137.715 61.3184 137.787 61.0723 137.787 60.791C137.787 60.5293 137.725 60.2988 137.6 60.0996C137.475 59.9004 137.268 59.7266 136.979 59.5781C136.693 59.4258 136.303 59.293 135.807 59.1797C135.221 59.043 134.725 58.8613 134.318 58.6348C133.916 58.4043 133.609 58.127 133.398 57.8028C133.191 57.4746 133.088 57.0996 133.088 56.6778C133.088 56.2324 133.205 55.834 133.439 55.4824C133.678 55.1309 134.008 54.8535 134.43 54.6504C134.852 54.4473 135.344 54.3457 135.906 54.3457C136.504 54.3457 137.031 54.4375 137.488 54.6211C137.949 54.8008 138.328 55.0196 138.625 55.2774V56.9824H137.729L137.535 55.7637C137.359 55.6231 137.141 55.5059 136.879 55.4121C136.617 55.3184 136.293 55.2715 135.906 55.2715C135.578 55.2715 135.289 55.3301 135.039 55.4473C134.789 55.5606 134.594 55.7207 134.453 55.9278C134.313 56.1348 134.242 56.3789 134.242 56.6602C134.242 56.9063 134.305 57.1211 134.43 57.3047C134.559 57.4883 134.766 57.6504 135.051 57.791C135.34 57.9278 135.725 58.0567 136.205 58.1778C137.104 58.4004 137.783 58.7305 138.244 59.168C138.709 59.6016 138.941 60.1387 138.941 60.7793C138.941 61.2363 138.818 61.6426 138.572 61.9981C138.326 62.3496 137.979 62.625 137.529 62.8242C137.084 63.0235 136.559 63.1231 135.953 63.1231Z" fill="black"/>
<path d="M125.257 63V62.2617L126.213 62.0977V55.377L125.257 55.2129V54.4688H128.322V55.2129L127.367 55.377V62.0977L128.322 62.2617V63H125.257Z" fill="black"/>
<path d="M110.12 63V62.2617L111.075 62.0977V55.377L110.12 55.2129V54.4688H112.616L115.364 60.9434H115.4L118.06 54.4688H120.632V55.2129L119.677 55.377V62.0977L120.632 62.2617V63H117.568V62.2617L118.575 62.0977V56.0449L118.546 56.0391L115.775 62.6953H115.007L112.142 56.0508L112.113 56.0567L112.154 59.625V62.0977L113.185 62.2617V63H110.12Z" fill="black"/>
<path d="M102.003 63.1231C101.452 63.1231 100.958 63.0176 100.52 62.8067C100.083 62.5957 99.7098 62.2988 99.4012 61.916C99.0965 61.5293 98.8622 61.0723 98.6981 60.5449C98.5379 60.0176 98.4579 59.4356 98.4579 58.7988V58.6758C98.4579 58.043 98.5379 57.4629 98.6981 56.9356C98.8622 56.4043 99.0965 55.9453 99.4012 55.5586C99.7098 55.1719 100.083 54.8731 100.52 54.6621C100.958 54.4512 101.452 54.3457 102.003 54.3457C102.585 54.3457 103.097 54.4512 103.538 54.6621C103.979 54.8731 104.348 55.1719 104.645 55.5586C104.946 55.9453 105.173 56.4043 105.325 56.9356C105.477 57.4629 105.554 58.043 105.554 58.6758V58.7988C105.554 59.4356 105.477 60.0176 105.325 60.5449C105.173 61.0723 104.946 61.5293 104.645 61.916C104.348 62.2988 103.979 62.5957 103.538 62.8067C103.097 63.0176 102.585 63.1231 102.003 63.1231ZM102.003 62.1621C102.569 62.1621 103.026 62.0215 103.374 61.7403C103.725 61.459 103.983 61.0664 104.147 60.5625C104.311 60.0547 104.393 59.4668 104.393 58.7988V58.6641C104.393 58 104.309 57.418 104.141 56.918C103.977 56.4141 103.72 56.0215 103.368 55.7403C103.016 55.4551 102.561 55.3125 102.003 55.3125C101.491 55.3125 101.057 55.4551 100.702 55.7403C100.347 56.0254 100.077 56.4199 99.8934 56.9238C99.7098 57.4238 99.618 58.0039 99.618 58.6641V58.7988C99.618 59.4629 99.7098 60.0488 99.8934 60.5567C100.077 61.0606 100.347 61.4551 100.702 61.7403C101.057 62.0215 101.491 62.1621 102.003 62.1621Z" fill="black"/>
<path d="M86.8012 63V62.2617L87.7563 62.0977V55.377L86.8012 55.2129V54.4746H90.6039C91.225 54.4746 91.7485 54.5684 92.1743 54.7559C92.6039 54.9395 92.9301 55.2071 93.1528 55.5586C93.3754 55.9102 93.4868 56.3399 93.4868 56.8477C93.4868 57.3477 93.3774 57.7676 93.1586 58.1074C92.9438 58.4473 92.6371 58.7051 92.2387 58.8809C91.8403 59.0528 91.3676 59.1446 90.8207 59.1563L88.9106 59.1914V62.0977L89.8657 62.2617V63H86.8012ZM92.4321 63L90.5336 58.7403L91.6879 58.7285L93.2641 62.1387L93.8559 62.2442V63H92.4321ZM88.9106 58.2832H90.4868C91.1313 58.2832 91.6 58.1602 91.893 57.9141C92.186 57.668 92.3325 57.3086 92.3325 56.836C92.3325 56.3867 92.1918 56.0313 91.9106 55.7696C91.6293 55.5078 91.1938 55.377 90.6039 55.377H88.9106V58.2832Z" fill="black"/>
<path d="M75.5957 63V62.2617L76.5508 62.0977V55.377L75.5957 55.2129V54.4688H79.5157C80.125 54.4688 80.6446 54.5762 81.0743 54.791C81.5039 55.002 81.8321 55.2988 82.0586 55.6817C82.2852 56.0645 82.3985 56.5117 82.3985 57.0235C82.3985 57.5391 82.2852 57.9883 82.0586 58.3711C81.8321 58.7539 81.5039 59.0508 81.0743 59.2617C80.6446 59.4727 80.125 59.5781 79.5157 59.5781H77.7051V62.0977L78.6602 62.2617V63H75.5957ZM77.7051 58.6758H79.5157C80.0938 58.6758 80.5254 58.5215 80.8106 58.2129C81.0996 57.9004 81.2442 57.5078 81.2442 57.0352C81.2442 56.5625 81.0996 56.168 80.8106 55.8516C80.5254 55.5352 80.0938 55.377 79.5157 55.377H77.7051V58.6758Z" fill="black"/>
<path d="M57.7551 63V62.2617L58.7102 62.0977V55.377L57.7551 55.2129V54.4688H64.0715V56.5196H63.1457L63.0168 55.3594H59.8645V58.1367H63.011V59.0449H59.8645V62.1328H63.2043L63.3332 60.9551H64.2532V63H57.7551Z" fill="black"/>
<path d="M47.0653 63V62.2617L48.0204 62.0977V55.377L47.0653 55.2129V54.4688H50.1297V55.2129L49.1746 55.377V62.1153H52.1922L52.327 60.7676H53.2118V63H47.0653Z" fill="black"/>
<path d="M35.7192 63V62.2617L36.6743 62.0977V55.377L35.7192 55.2129V54.4688H39.3989C40.2895 54.4688 40.9848 54.6621 41.4848 55.0488C41.9887 55.4317 42.2407 56.0078 42.2407 56.7774C42.2407 57.1563 42.1196 57.4961 41.8774 57.7969C41.6391 58.0938 41.3227 58.3145 40.9282 58.459C41.2719 58.5293 41.5668 58.668 41.8129 58.875C42.059 59.0781 42.2485 59.3281 42.3813 59.625C42.518 59.918 42.5864 60.2403 42.5864 60.5918C42.5864 61.3731 42.3325 61.9707 41.8246 62.3848C41.3168 62.7949 40.6293 63 39.7621 63H35.7192ZM37.8286 62.0977H39.7621C40.2895 62.0977 40.6977 61.9688 40.9868 61.711C41.2797 61.4492 41.4262 61.0801 41.4262 60.6035C41.4262 60.1035 41.3032 59.711 41.0571 59.4258C40.8149 59.1406 40.4418 58.9981 39.9379 58.9981H37.8286V62.0977ZM37.8286 58.0957H39.6977C40.1118 58.0957 40.4457 57.9766 40.6996 57.7383C40.9575 57.4961 41.0864 57.168 41.0864 56.7539C41.0864 56.293 40.9418 55.9492 40.6528 55.7227C40.3637 55.4922 39.9457 55.377 39.3989 55.377H37.8286V58.0957Z" fill="black"/>
<path d="M28.0996 63V62.2617L29.0547 62.0977V55.377L28.0996 55.2129V54.4688H31.1641V55.2129L30.209 55.377V62.0977L31.1641 62.2617V63H28.0996Z" fill="black"/>
<path d="M16.7536 63V62.2617L17.7086 62.0977V55.377L16.7536 55.2129V54.4688H20.4332C21.3239 54.4688 22.0192 54.6621 22.5192 55.0488C23.0231 55.4317 23.275 56.0078 23.275 56.7774C23.275 57.1563 23.1539 57.4961 22.9118 57.7969C22.6735 58.0938 22.3571 58.3145 21.9625 58.459C22.3063 58.5293 22.6012 58.668 22.8473 58.875C23.0934 59.0781 23.2829 59.3281 23.4157 59.625C23.5524 59.918 23.6207 60.2403 23.6207 60.5918C23.6207 61.3731 23.3668 61.9707 22.859 62.3848C22.3512 62.7949 21.6637 63 20.7965 63H16.7536ZM18.8629 62.0977H20.7965C21.3239 62.0977 21.7321 61.9688 22.0211 61.711C22.3141 61.4492 22.4606 61.0801 22.4606 60.6035C22.4606 60.1035 22.3375 59.711 22.0914 59.4258C21.8493 59.1406 21.4762 58.9981 20.9723 58.9981H18.8629V62.0977ZM18.8629 58.0957H20.7321C21.1461 58.0957 21.4801 57.9766 21.734 57.7383C21.9918 57.4961 22.1207 57.168 22.1207 56.7539C22.1207 56.293 21.9762 55.9492 21.6871 55.7227C21.3981 55.4922 20.9801 55.377 20.4332 55.377H18.8629V58.0957Z" fill="black"/>
</svg>
