<svg width="23" height="29" viewBox="0 0 23 29" fill="none" xmlns="http://www.w3.org/2000/svg">
<path d="M1.4375 26.1H21.5625C21.9698 26.1 22.3112 26.239 22.5867 26.5169C22.8622 26.7948 23 27.1392 23 27.55C23 27.9608 22.8622 28.3052 22.5867 28.5831C22.3112 28.861 21.9698 29 21.5625 29H1.4375C1.03021 29 0.688802 28.861 0.413281 28.5831C0.13776 28.3052 0 27.9608 0 27.55C0 27.1392 0.13776 26.7948 0.413281 26.5169C0.688802 26.239 1.03021 26.1 1.4375 26.1ZM11.5 22.2937C11.2844 22.2937 11.0747 22.2454 10.8711 22.1487C10.6674 22.0521 10.4937 21.9071 10.35 21.7137L3.23437 12.5062C2.875 12.0229 2.82708 11.5094 3.09062 10.9656C3.35417 10.4219 3.78542 10.15 4.38437 10.15H7.1875V1.45C7.1875 1.03917 7.32526 0.694792 7.60078 0.416875C7.8763 0.138958 8.21771 0 8.625 0H14.375C14.7823 0 15.1237 0.138958 15.3992 0.416875C15.6747 0.694792 15.8125 1.03917 15.8125 1.45V10.15H18.6156C19.2146 10.15 19.6458 10.4219 19.9094 10.9656C20.1729 11.5094 20.125 12.0229 19.7656 12.5062L12.65 21.7137C12.5062 21.9071 12.3326 22.0521 12.1289 22.1487C11.9253 22.2454 11.7156 22.2937 11.5 22.2937Z" fill="black"/>
</svg>
