<svg width="31" height="31" viewBox="0 0 31 31" fill="none" xmlns="http://www.w3.org/2000/svg">
<path d="M30.4839 9.04156C30.4667 7.75534 30.2259 6.4819 29.7723 5.27821C29.3789 4.2629 28.778 3.34082 28.0081 2.57089C27.2381 1.80095 26.3161 1.20008 25.3008 0.806676C24.1125 0.360639 22.8573 0.119458 21.5883 0.0934047C19.9546 0.0203793 19.4366 0 15.2895 0C11.1423 0 10.6108 1.13878e-07 8.98892 0.0934047C7.72058 0.11965 6.46589 0.360827 5.27821 0.806676C4.26274 1.19981 3.34052 1.80058 2.57055 2.57055C1.80058 3.34052 1.19981 4.26274 0.806676 5.27821C0.359745 6.46552 0.119088 7.7205 0.0951028 8.98892C0.0220774 10.6243 0 11.1423 0 15.2895C0 19.4366 -1.26531e-08 19.9665 0.0951028 21.59C0.120577 22.8603 0.360032 24.1137 0.806676 25.3041C1.20047 26.3193 1.80168 27.2412 2.57191 28.0108C3.34214 28.7804 4.26445 29.381 5.27991 29.774C6.46433 30.2379 7.71925 30.4964 8.99062 30.5382C10.626 30.6112 11.144 30.6333 15.2912 30.6333C19.4383 30.6333 19.9699 30.6333 21.5917 30.5382C22.8606 30.5132 24.116 30.2726 25.3041 29.8266C26.3192 29.4328 27.241 28.8317 28.0109 28.0619C28.7808 27.292 29.3818 26.3701 29.7757 25.3551C30.2223 24.1663 30.4618 22.913 30.4873 21.641C30.5603 20.0073 30.5824 19.4893 30.5824 15.3404C30.579 11.1933 30.579 10.6668 30.4839 9.04156ZM15.2793 23.1321C10.9419 23.1321 7.42821 19.6184 7.42821 15.281C7.42821 10.9436 10.9419 7.42991 15.2793 7.42991C17.3615 7.42991 19.3585 8.25707 20.8308 9.72944C22.3032 11.2018 23.1304 13.1988 23.1304 15.281C23.1304 17.3632 22.3032 19.3602 20.8308 20.8325C19.3585 22.3049 17.3615 23.1321 15.2793 23.1321ZM23.4429 8.97023C23.2024 8.97046 22.9642 8.92326 22.742 8.83134C22.5198 8.73941 22.3179 8.60457 22.1478 8.43453C21.9778 8.26448 21.8429 8.06258 21.751 7.84036C21.6591 7.61814 21.6119 7.37998 21.6121 7.13951C21.6121 6.8992 21.6595 6.66125 21.7514 6.43924C21.8434 6.21723 21.9782 6.01551 22.1481 5.84558C22.318 5.67566 22.5197 5.54088 22.7417 5.44892C22.9637 5.35696 23.2017 5.30963 23.442 5.30963C23.6823 5.30963 23.9203 5.35696 24.1423 5.44892C24.3643 5.54088 24.566 5.67566 24.7359 5.84558C24.9058 6.01551 25.0406 6.21723 25.1326 6.43924C25.2246 6.66125 25.2719 6.8992 25.2719 7.13951C25.2719 8.15167 24.4533 8.97023 23.4429 8.97023Z" fill="black"/>
<path d="M15.2791 20.3809C18.0957 20.3809 20.379 18.0976 20.379 15.281C20.379 12.4644 18.0957 10.1811 15.2791 10.1811C12.4625 10.1811 10.1792 12.4644 10.1792 15.281C10.1792 18.0976 12.4625 20.3809 15.2791 20.3809Z" fill="black"/>
</svg>
