<svg width="203" height="53" viewBox="0 0 203 53" fill="none" xmlns="http://www.w3.org/2000/svg">
<path d="M36.1135 11.6744C36.1135 11.8913 36.0334 12.0865 35.8734 12.2601C35.728 12.4336 35.5388 12.5204 35.3061 12.5204C35.0879 12.5204 34.8988 12.4481 34.7387 12.3035C34.5787 12.1589 34.4842 11.9636 34.4551 11.7178C34.4405 11.6599 34.4042 11.3851 34.346 10.8934C34.3023 10.4017 34.1569 9.80153 33.9096 9.09288C33.6768 8.36978 33.3131 7.60328 32.8185 6.7934C32.3239 5.96906 31.6402 5.2098 30.7674 4.51561C29.9091 3.82143 28.818 3.24295 27.4942 2.78016C26.1704 2.31737 24.563 2.08597 22.6718 2.08597C20.9989 2.08597 19.3114 2.33906 17.6094 2.84524C15.9219 3.33695 14.2999 4.03836 12.7434 4.94948C11.1868 5.84613 9.73209 6.92356 8.37919 8.18177C7.0263 9.42551 5.84798 10.7994 4.84422 12.3035C3.85501 13.8075 3.06946 15.4128 2.48757 17.1194C1.92023 18.8259 1.63656 20.5831 1.63656 22.3908C1.63656 24.025 1.86204 25.4279 2.31301 26.5993C2.76397 27.7563 3.3895 28.7036 4.1896 29.4411C4.98969 30.1787 5.92799 30.721 7.00448 31.0681C8.09552 31.4007 9.26657 31.5671 10.5176 31.5671C12.6852 31.5671 14.7072 31.1983 16.5838 30.4607C18.475 29.7087 20.2206 28.7036 21.8208 27.4453C23.4356 26.1727 24.9048 24.6975 26.2286 23.0199C27.5524 21.3279 28.738 19.549 29.7854 17.6834C29.9018 15.919 30.1055 14.574 30.3964 13.6485C30.7019 12.7084 31.1529 12.2384 31.7493 12.2384C32.0839 12.2384 32.3603 12.3758 32.5785 12.6506C32.8112 12.9254 32.9276 13.2797 32.9276 13.7135C32.9276 14.1908 32.804 14.7982 32.5567 15.5358C32.3094 16.2733 31.9311 17.1266 31.422 18.0956C31.3783 18.7753 31.3565 19.5056 31.3565 20.2866C31.3565 21.4291 31.4002 22.6801 31.4874 24.0395C31.5893 25.399 31.742 26.8452 31.9457 28.3782C32.5567 28.0744 33.0294 27.8575 33.364 27.7274C33.7132 27.5827 33.9677 27.4887 34.1278 27.4453C34.2878 27.3875 34.3896 27.3658 34.4333 27.3803C34.4769 27.3803 34.5133 27.3803 34.5424 27.3803C34.7606 27.3803 34.9497 27.4598 35.1097 27.6189C35.2843 27.7635 35.3715 27.9588 35.3715 28.2046C35.3715 28.3782 35.3206 28.5372 35.2188 28.6819C35.117 28.812 34.9788 28.906 34.8042 28.9639C34.7751 28.9783 34.5205 29.0796 34.0405 29.2676C33.575 29.4411 32.9494 29.7231 32.1639 30.1136C32.2366 30.8946 32.2948 31.6828 32.3385 32.4782C32.3821 33.2736 32.4039 34.0762 32.4039 34.8861C32.4039 36.7951 32.2657 38.6174 31.9893 40.3528C31.7129 42.0883 31.2547 43.614 30.6146 44.9301C29.9891 46.2461 29.1526 47.2874 28.1052 48.0539C27.0578 48.8349 25.7704 49.2253 24.2429 49.2253C23.4865 49.2253 22.7882 49.0952 22.1481 48.8349C21.5081 48.5745 20.9553 48.213 20.4897 47.7502C20.0242 47.2874 19.6606 46.7306 19.3987 46.0798C19.1369 45.4435 19.0059 44.7421 19.0059 43.9756C19.0059 42.8909 19.1878 41.8207 19.5515 40.765C19.9297 39.7092 20.4243 38.6897 21.0353 37.7062C21.6608 36.7228 22.3736 35.79 23.1737 34.9078C23.9738 34.0401 24.7957 33.2374 25.6395 32.4999C26.4832 31.7623 27.3124 31.1115 28.127 30.5475C28.9562 29.9835 29.7127 29.5279 30.3964 29.1808C30.2073 27.7346 30.0545 26.3173 29.9382 24.9289C29.8218 23.5261 29.7491 22.1667 29.72 20.8506C28.4543 22.8608 27.0578 24.6325 25.5304 26.1654C24.0174 27.6984 22.4318 28.9856 20.7734 30.0268C19.115 31.0681 17.4057 31.8563 15.6455 32.3914C13.8999 32.912 12.1615 33.1724 10.4304 33.1724C8.85925 33.1724 7.43363 32.941 6.15347 32.4782C4.87332 32.0009 3.775 31.3067 2.85853 30.3956C1.94205 29.4845 1.23651 28.3565 0.741908 27.0115C0.247303 25.6665 0 24.1191 0 22.3691C0 20.518 0.290944 18.6957 0.872833 16.9024C1.45472 15.0947 2.26209 13.3809 3.29494 11.7612C4.3278 10.1269 5.54976 8.62286 6.96084 7.24896C8.38647 5.87506 9.93575 4.68916 11.6087 3.69127C13.2962 2.67892 15.0709 1.89074 16.933 1.32671C18.8095 0.748226 20.7225 0.458983 22.6718 0.458983C24.5484 0.458983 26.1777 0.675915 27.5597 1.10978C28.9417 1.52918 30.1127 2.07151 31.0728 2.73677C32.0475 3.38757 32.8331 4.10344 33.4295 4.8844C34.0405 5.65089 34.5205 6.38123 34.8697 7.07542C35.1606 7.66836 35.3861 8.23962 35.5461 8.78918C35.7207 9.33874 35.8443 9.82322 35.9171 10.2426C36.0044 10.662 36.0553 11.0019 36.0698 11.2622C36.0989 11.5225 36.1135 11.6599 36.1135 11.6744ZM30.5928 30.9813C29.8654 31.3863 29.109 31.8708 28.3234 32.4348C27.5524 32.9843 26.796 33.5918 26.0541 34.257C25.3267 34.9223 24.6357 35.6382 23.9811 36.4046C23.3265 37.1711 22.7518 37.9666 22.2572 38.7909C21.7626 39.6152 21.3699 40.4613 21.0789 41.329C20.8025 42.2112 20.6643 43.0934 20.6643 43.9756C20.6643 44.5251 20.7516 45.0169 20.9262 45.4507C21.1007 45.899 21.348 46.2751 21.6681 46.5788C21.9881 46.8969 22.3663 47.1428 22.8028 47.3163C23.2392 47.4899 23.7192 47.5767 24.2429 47.5767C26.2941 47.5767 27.8943 46.492 29.0435 44.3227C30.1927 42.1678 30.7674 39.0151 30.7674 34.8644C30.7674 34.2426 30.7528 33.6062 30.7237 32.9554C30.6946 32.3191 30.651 31.6611 30.5928 30.9813Z" fill="black"/>
<path d="M50.2533 26.5125C50.0933 26.8452 49.8897 27.2429 49.6424 27.7057C49.4096 28.154 49.1405 28.624 48.835 29.1157C48.5295 29.6074 48.1876 30.0992 47.8094 30.5909C47.4312 31.0681 47.0166 31.502 46.5656 31.8925C46.1292 32.2685 45.6564 32.5722 45.1473 32.8036C44.6527 33.0494 44.1217 33.1724 43.5544 33.1724C42.6815 33.1724 41.9323 32.9048 41.3068 32.3697C40.6813 31.8346 40.1503 31.1332 39.7139 30.2655C39.2775 29.3977 38.9211 28.4143 38.6447 27.3152C38.3828 26.2016 38.1792 25.0736 38.0337 23.931C37.8882 22.7741 37.7864 21.6533 37.7282 20.5686C37.6846 19.4839 37.6627 18.5222 37.6627 17.6834C37.6627 16.4686 37.6991 15.2104 37.7718 13.9088C37.8591 12.6072 37.99 11.3345 38.1646 10.0908C38.3392 8.84703 38.5574 7.66836 38.8192 6.55478C39.0956 5.44119 39.4157 4.465 39.7794 3.62619C40.1576 2.78739 40.5867 2.12213 41.0668 1.63042C41.5468 1.1387 42.0924 0.892848 42.7033 0.892848C43.1834 0.892848 43.6125 1.00854 43.9908 1.23994C44.3835 1.45687 44.7109 1.81842 44.9727 2.3246C45.2346 2.83078 45.4382 3.4888 45.5837 4.29868C45.7292 5.10856 45.8019 6.09922 45.8019 7.27065C45.8019 8.71687 45.6492 10.2137 45.3437 11.7612C45.0382 13.2941 44.6236 14.8416 44.0999 16.4035C43.5762 17.9654 42.9579 19.5273 42.2451 21.0892C41.5323 22.6367 40.7686 24.148 39.9539 25.6231C40.3176 27.4598 40.8049 28.906 41.4159 29.9618C42.0269 31.003 42.7615 31.5237 43.6198 31.5237C44.2017 31.5237 44.7618 31.2995 45.3 30.8512C45.8383 30.3884 46.3329 29.8461 46.7838 29.2242C47.2348 28.6023 47.6276 27.9732 47.9622 27.3369C48.3113 26.6861 48.5804 26.1654 48.7695 25.775C48.8423 25.6303 48.9441 25.5219 49.075 25.4496C49.2059 25.3628 49.3514 25.3194 49.5114 25.3194C49.7587 25.3194 49.9551 25.4062 50.1006 25.5797C50.2606 25.7533 50.3406 25.9485 50.3406 26.1654C50.3406 26.2522 50.3115 26.3679 50.2533 26.5125ZM39.3211 17.7919C39.3211 18.7174 39.3429 19.6069 39.3866 20.4601C39.4302 21.3134 39.4884 22.1305 39.5611 22.9115C40.1721 21.74 40.754 20.4963 41.3068 19.1802C41.8596 17.8497 42.3469 16.512 42.7688 15.167C43.1907 13.8075 43.5253 12.4626 43.7726 11.132C44.0344 9.78707 44.1653 8.50717 44.1653 7.29235C44.1653 5.58581 44.0271 4.36376 43.7507 3.62619C43.4743 2.88862 43.1034 2.51984 42.6379 2.51984C42.3324 2.51984 42.0342 2.72954 41.7432 3.14894C41.4668 3.56834 41.205 4.1396 40.9577 4.86271C40.7104 5.58581 40.4849 6.43908 40.2812 7.42251C40.0776 8.40593 39.903 9.46167 39.7575 10.5897C39.6266 11.7178 39.5175 12.8964 39.4302 14.1257C39.3575 15.355 39.3211 16.577 39.3211 17.7919Z" fill="black"/>
<path d="M65.6588 26.4692C65.6007 26.5849 65.477 26.8307 65.2879 27.2067C65.1133 27.5683 64.8806 27.9877 64.5896 28.4649C64.3132 28.9422 63.9859 29.4411 63.6077 29.9618C63.2295 30.4824 62.8076 30.9596 62.3421 31.3935C61.8766 31.8274 61.3747 32.1889 60.8364 32.4782C60.2982 32.753 59.7309 32.8903 59.1344 32.8903C58.2907 32.8903 57.5779 32.6228 56.996 32.0877C56.4286 31.5526 56.014 30.8801 55.7522 30.0702C55.2576 30.8946 54.6684 31.5526 53.9847 32.0443C53.301 32.5216 52.6173 32.7602 51.9335 32.7602C51.3953 32.7602 50.908 32.6662 50.4716 32.4782C50.0351 32.2757 49.6642 32.0009 49.3587 31.6538C49.0532 31.2923 48.8132 30.8729 48.6386 30.3956C48.4786 29.9184 48.3986 29.3977 48.3986 28.8337C48.3986 27.7057 48.5877 26.715 48.9659 25.8617C49.3587 24.994 49.8533 24.2709 50.4497 23.6924C51.0462 23.1139 51.7008 22.6801 52.4136 22.3908C53.141 22.1016 53.8392 21.957 54.5084 21.957C54.9594 21.957 55.374 22.022 55.7522 22.1522C56.1304 22.2679 56.4505 22.3981 56.7123 22.5427C56.9887 22.6873 57.1996 22.8247 57.3451 22.9549C57.4906 23.0705 57.5706 23.1356 57.5851 23.1501C57.7452 23.3381 57.8252 23.5333 57.8252 23.7358C57.8252 23.9527 57.7452 24.148 57.5851 24.3215C57.4251 24.4806 57.236 24.5601 57.0178 24.5601C56.785 24.5601 56.5887 24.4806 56.4286 24.3215C56.3995 24.2926 56.3341 24.242 56.2323 24.1697C56.1304 24.0829 55.9922 23.9961 55.8177 23.9094C55.6431 23.8226 55.4322 23.7503 55.1849 23.6924C54.9521 23.6201 54.683 23.584 54.3775 23.584C53.9265 23.584 53.4465 23.6852 52.9373 23.8877C52.4282 24.0901 51.9626 24.4083 51.5408 24.8422C51.1189 25.2616 50.7625 25.7967 50.4716 26.4475C50.1952 27.0838 50.057 27.8431 50.057 28.7252C50.057 29 50.0861 29.282 50.1442 29.5713C50.2024 29.8461 50.3043 30.0992 50.4497 30.3305C50.5952 30.5619 50.7916 30.7499 51.0389 30.8946C51.2862 31.0392 51.5917 31.1115 51.9554 31.1115C52.2172 31.1115 52.5154 31.0247 52.85 30.8512C53.1992 30.6776 53.5265 30.4101 53.832 30.0485C54.152 29.687 54.4357 29.2314 54.683 28.6819C54.9448 28.1323 55.1267 27.4815 55.2285 26.7295C55.2576 26.527 55.3521 26.3607 55.5122 26.2305C55.6722 26.0859 55.8613 26.0136 56.0795 26.0136C56.2832 26.0136 56.4577 26.0931 56.6032 26.2522C56.7632 26.4113 56.8505 26.5921 56.8651 26.7945C56.8796 27.0693 56.9087 27.4598 56.9523 27.966C56.996 28.4577 57.0905 28.9494 57.236 29.4411C57.396 29.9328 57.6288 30.3595 57.9343 30.721C58.2398 31.0826 58.6616 31.2634 59.1999 31.2634C59.549 31.2634 59.8909 31.1693 60.2255 30.9813C60.5746 30.7933 60.9092 30.5475 61.2292 30.2438C61.5638 29.9256 61.8766 29.5713 62.1675 29.1808C62.473 28.7759 62.7494 28.3709 62.9967 27.966C63.244 27.561 63.4622 27.1706 63.6513 26.7945C63.8404 26.4185 64.0005 26.0931 64.1314 25.8184C64.2041 25.6593 64.306 25.5363 64.4369 25.4496C64.5824 25.3628 64.7351 25.3194 64.8951 25.3194C65.1424 25.3194 65.3388 25.4134 65.4843 25.6014C65.6443 25.775 65.7243 25.963 65.7243 26.1654C65.7243 26.2667 65.7025 26.3679 65.6588 26.4692Z" fill="black"/>
<path d="M72.6197 26.2088C73.3325 29.5496 74.3653 31.22 75.7182 31.22C76.2419 31.22 76.7438 31.032 77.2239 30.6559C77.7039 30.2655 78.1476 29.7954 78.5549 29.2459C78.9768 28.6819 79.3478 28.0889 79.6678 27.467C79.9878 26.8452 80.2497 26.3028 80.4534 25.84C80.5988 25.493 80.8534 25.3194 81.2171 25.3194C81.4498 25.3194 81.6462 25.4062 81.8063 25.5797C81.9663 25.7533 82.0463 25.9413 82.0463 26.1438C82.0463 26.2595 82.0245 26.3607 81.9808 26.4475C81.879 26.6933 81.7262 27.0259 81.5226 27.4453C81.3335 27.8503 81.0934 28.2914 80.8025 28.7686C80.5261 29.2314 80.2133 29.7087 79.8642 30.2004C79.5151 30.6921 79.1296 31.1332 78.7077 31.5237C78.2858 31.9142 77.8349 32.2395 77.3548 32.4999C76.8893 32.7457 76.3947 32.8687 75.871 32.8687C74.8963 32.8687 74.0599 32.536 73.3616 31.8708C72.6633 31.191 72.0596 30.0775 71.5505 28.53C70.8522 30.0051 70.1467 31.0753 69.4338 31.7406C68.721 32.4059 67.95 32.7385 67.1208 32.7385C66.6844 32.7385 66.2626 32.6662 65.8552 32.5216C65.4479 32.3914 65.0915 32.1672 64.786 31.8491C64.4805 31.5309 64.2332 31.126 64.0441 30.6343C63.855 30.1281 63.7604 29.5134 63.7604 28.7903C63.7604 27.7924 63.935 26.8741 64.2841 26.0353C64.6333 25.1965 65.0842 24.4806 65.637 23.8877C66.1898 23.2802 66.8008 22.8102 67.47 22.4776C68.1537 22.145 68.8301 21.9787 69.4993 21.9787C69.7175 21.9787 69.9066 22.0582 70.0667 22.2173C70.2267 22.3619 70.3067 22.5499 70.3067 22.7813C70.3067 22.9838 70.2412 23.1646 70.1103 23.3236C69.9794 23.4827 69.8048 23.5767 69.5866 23.6056C69.1502 23.6635 68.6847 23.8009 68.1901 24.0178C67.6955 24.2348 67.2372 24.5529 66.8153 24.9723C66.408 25.3773 66.0662 25.8979 65.7898 26.5342C65.5279 27.1706 65.397 27.9298 65.397 28.812C65.397 29.5351 65.5425 30.0992 65.8334 30.5041C66.1389 30.909 66.5753 31.1115 67.1427 31.1115C67.3754 31.1115 67.6227 31.0537 67.8846 30.938C68.1464 30.8078 68.4228 30.5619 68.7138 30.2004C69.0192 29.8388 69.3466 29.3254 69.6957 28.6602C70.0594 27.9949 70.4594 27.1199 70.8958 26.0353C70.6485 24.7626 70.4231 23.2947 70.2194 21.6316C70.0157 19.9684 69.9139 18.11 69.9139 16.0564C69.9139 15.1598 69.943 14.2269 70.0012 13.258C70.0594 12.2746 70.1539 11.3201 70.2849 10.3945C70.4158 9.45444 70.5903 8.56502 70.8086 7.72621C71.0268 6.88741 71.2886 6.14984 71.5941 5.5135C71.9141 4.87717 72.2851 4.37822 72.707 4.01667C73.1288 3.64066 73.6089 3.45265 74.1471 3.45265C74.6272 3.45265 75.0345 3.58281 75.3691 3.84313C75.7037 4.10344 75.9728 4.465 76.1765 4.92779C76.3947 5.39057 76.5547 5.94737 76.6565 6.59816C76.7584 7.24896 76.8093 7.96484 76.8093 8.74579C76.8093 10.4234 76.6638 12.101 76.3729 13.7786C76.0819 15.4562 75.7182 17.0615 75.2818 18.5945C74.86 20.1275 74.409 21.5448 73.9289 22.8464C73.4489 24.148 73.0125 25.2688 72.6197 26.2088ZM75.1727 8.7241C75.1727 8.36255 75.1582 7.97207 75.1291 7.55267C75.1145 7.13326 75.0636 6.74279 74.9763 6.38123C74.9036 6.00522 74.8018 5.69428 74.6708 5.44842C74.5399 5.20257 74.3653 5.07964 74.1471 5.07964C73.7835 5.07964 73.4416 5.39781 73.1216 6.03414C72.8161 6.67048 72.547 7.50928 72.3142 8.55055C72.0814 9.57737 71.8923 10.7488 71.7469 12.0649C71.6159 13.3664 71.5505 14.6825 71.5505 16.013C71.5505 17.2857 71.6014 18.5584 71.7032 19.831C71.805 21.1037 71.9214 22.239 72.0523 23.2369C72.4742 22.1233 72.8743 20.9808 73.2525 19.8093C73.6307 18.6234 73.958 17.4158 74.2344 16.1866C74.5254 14.9573 74.7509 13.7208 74.9109 12.477C75.0854 11.2188 75.1727 9.96784 75.1727 8.7241Z" fill="black"/>
<path d="M88.5925 32.8253C89.1017 32.3191 89.6181 31.8057 90.1418 31.285C90.6655 30.7499 91.1747 30.1932 91.6693 29.6147C92.1639 29.0362 92.6221 28.436 93.044 27.8141C93.4804 27.1778 93.8659 26.5053 94.2005 25.7967C94.2732 25.6376 94.375 25.5219 94.506 25.4496C94.6369 25.3628 94.7824 25.3194 94.9424 25.3194C95.1897 25.3194 95.3861 25.4062 95.5315 25.5797C95.6916 25.7533 95.7716 25.9485 95.7716 26.1654C95.7716 26.2811 95.7498 26.3896 95.7061 26.4908C95.2551 27.4309 94.7387 28.2914 94.1568 29.0723C93.5749 29.8533 92.964 30.5981 92.3239 31.3067C91.6838 32.0009 91.0365 32.6734 90.3818 33.3242C89.7272 33.9895 89.1017 34.6547 88.5052 35.32C88.4471 36.3179 88.4471 37.3158 88.5052 38.3136C88.5634 39.326 88.5925 40.3962 88.5925 41.5242C88.5925 42.4498 88.5634 43.3754 88.5052 44.301C88.4471 45.2266 88.3525 46.1087 88.2216 46.9476C88.0906 47.8008 87.9088 48.5962 87.676 49.3338C87.4578 50.0714 87.1742 50.7077 86.825 51.2428C86.4759 51.7924 86.0686 52.219 85.6031 52.5227C85.1376 52.8409 84.592 53 83.9665 53C82.9337 53 82.1408 52.6456 81.588 51.937C81.0352 51.2283 80.7589 50.2377 80.7589 48.965C80.7589 48.2708 80.8316 47.526 80.9771 46.7306C81.1371 45.9352 81.3553 45.1109 81.6317 44.2576C81.9081 43.4188 82.2354 42.5655 82.6136 41.6978C83.0064 40.8301 83.4283 39.984 83.8792 39.1597C84.3302 38.3353 84.8102 37.5472 85.3194 36.7951C85.8286 36.0576 86.345 35.3851 86.8687 34.7777C86.8978 34.0835 86.9269 33.3604 86.956 32.6083C86.9996 31.8708 87.0432 31.1838 87.0869 30.5475C86.7087 31.2127 86.2359 31.7478 85.6685 32.1528C85.1157 32.5577 84.5048 32.7602 83.8356 32.7602C82.73 32.7602 81.8644 32.3914 81.2389 31.6538C80.6134 30.9163 80.3006 29.9039 80.3006 28.6168C80.3006 27.6767 80.3879 26.8235 80.5625 26.057C80.7516 25.276 80.948 24.6108 81.1516 24.0612C81.3698 23.4972 81.5662 23.0705 81.7408 22.7813C81.9154 22.4776 82.0026 22.333 82.0026 22.3474C82.1627 22.1016 82.3881 21.9787 82.6791 21.9787C82.9264 21.9787 83.1228 22.0654 83.2682 22.239C83.4283 22.3981 83.5083 22.5861 83.5083 22.803C83.5083 22.9621 83.4646 23.1067 83.3773 23.2369C83.3919 23.2224 83.3192 23.3453 83.1591 23.6056C83.0137 23.8515 82.8464 24.2131 82.6573 24.6903C82.4827 25.1676 82.3154 25.7388 82.1554 26.4041C82.0099 27.0693 81.9372 27.7997 81.9372 28.5951C81.9372 29.3905 82.0826 30.0124 82.3736 30.4607C82.6645 30.909 83.1373 31.1332 83.7919 31.1332C84.6211 31.1332 85.3703 30.5258 86.0395 29.311C86.7087 28.0817 87.276 26.3028 87.7415 23.9744C87.7706 23.7864 87.8579 23.6346 88.0034 23.5189C88.1488 23.3887 88.3234 23.3236 88.5271 23.3236C88.7598 23.3236 88.9562 23.4032 89.1162 23.5623C89.2762 23.7213 89.3563 23.9166 89.3563 24.148C89.3563 24.1914 89.3272 24.4517 89.269 24.9289C89.2108 25.3917 89.138 26.0136 89.0508 26.7945C88.978 27.5755 88.898 28.4866 88.8107 29.5279C88.7234 30.5547 88.6507 31.6538 88.5925 32.8253ZM86.8469 37.4242C86.1922 38.3643 85.5885 39.3549 85.0357 40.3962C84.4975 41.4375 84.032 42.4715 83.6392 43.4983C83.2464 44.5251 82.9409 45.5086 82.7227 46.4486C82.5045 47.3886 82.3954 48.2275 82.3954 48.965C82.3954 49.7171 82.5191 50.3028 82.7664 50.7222C83.0137 51.156 83.4064 51.373 83.9447 51.373C84.4248 51.373 84.8466 51.1343 85.2103 50.6571C85.5885 50.1943 85.9013 49.529 86.1486 48.6613C86.4104 47.7936 86.6068 46.7379 86.7378 45.4941C86.8687 44.2648 86.9341 42.8837 86.9341 41.3507C86.9341 40.7288 86.9196 40.0997 86.8905 39.4634C86.876 38.8271 86.8614 38.1473 86.8469 37.4242Z" fill="black"/>
<path d="M98.761 2.93201C98.8483 5.14472 98.1209 7.03203 96.5789 8.59394C96.3898 8.75302 96.1934 8.83257 95.9898 8.83257C95.757 8.83257 95.5606 8.75302 95.4006 8.59394C95.2406 8.43486 95.1606 8.24685 95.1606 8.02992C95.1606 7.79852 95.2406 7.60328 95.4006 7.4442C96.608 6.21492 97.1827 4.73255 97.1245 2.99709C97.1099 2.7657 97.1754 2.57046 97.3209 2.41137C97.4809 2.23783 97.6773 2.15105 97.91 2.15105C98.1282 2.15105 98.3173 2.22337 98.4774 2.36799C98.6519 2.51261 98.7465 2.70062 98.761 2.93201Z" fill="black"/>
<path d="M103.802 24.4951C103.714 24.7265 103.605 24.9868 103.474 25.276C103.358 25.5653 103.22 25.869 103.06 26.1871C102.929 26.433 102.791 26.6282 102.645 26.7729C102.514 26.903 102.34 26.9681 102.121 26.9681C101.874 26.9681 101.678 26.8958 101.532 26.7512C101.387 26.5921 101.314 26.4113 101.314 26.2088C101.314 26.1365 101.321 26.0787 101.336 26.0353C101.35 25.9774 101.387 25.8907 101.445 25.775C101.823 25.0519 102.1 24.4228 102.274 23.8877C102.463 23.3381 102.616 22.7668 102.732 22.1739C102.631 21.8413 102.558 21.5593 102.514 21.3279C102.471 21.0965 102.449 20.8578 102.449 20.612C102.449 20.1347 102.551 19.7515 102.754 19.4622C102.958 19.1585 103.242 19.0067 103.605 19.0067C103.94 19.0067 104.202 19.1513 104.391 19.4405C104.594 19.7298 104.696 20.0841 104.696 20.5035C104.696 20.7349 104.674 20.9663 104.631 21.1977C104.587 21.4291 104.529 21.7183 104.456 22.0654C104.791 22.8898 105.125 23.6201 105.46 24.2564C105.795 24.8928 106.093 25.4785 106.355 26.0136C106.617 26.5342 106.827 27.0259 106.987 27.4887C107.162 27.9515 107.249 28.4143 107.249 28.8771C107.249 29.4845 107.126 30.063 106.878 30.6126C106.631 31.1621 106.224 31.6249 105.656 32.0009C105.729 32.0154 105.802 32.0226 105.875 32.0226C105.947 32.0226 106.02 32.0226 106.093 32.0226C106.922 32.0226 107.686 31.8346 108.384 31.4586C109.082 31.0826 109.708 30.5981 110.261 30.0051C110.828 29.3977 111.33 28.7325 111.766 28.0094C112.203 27.2718 112.581 26.5415 112.901 25.8184C113.046 25.4857 113.25 25.3194 113.512 25.3194C113.759 25.3194 113.948 25.4062 114.079 25.5797C114.225 25.7533 114.297 25.9413 114.297 26.1438C114.297 26.2595 114.276 26.3679 114.232 26.4692C114.072 26.8596 113.861 27.308 113.599 27.8141C113.352 28.3058 113.046 28.8193 112.683 29.3544C112.334 29.875 111.926 30.3884 111.461 30.8946C110.995 31.4007 110.472 31.8563 109.89 32.2612C109.322 32.6517 108.697 32.9627 108.013 33.194C107.329 33.4399 106.58 33.5628 105.766 33.5628C104.791 33.5628 103.882 33.3893 103.038 33.0422C102.209 32.7096 101.532 32.1528 101.009 31.3718C100.921 31.2417 100.878 31.1043 100.878 30.9596C100.878 30.7427 100.958 30.5547 101.118 30.3956C101.292 30.2221 101.489 30.1353 101.707 30.1353C101.94 30.1353 102.136 30.2148 102.296 30.3739C102.311 30.4029 102.361 30.4535 102.449 30.5258C102.536 30.5836 102.638 30.6559 102.754 30.7427C102.885 30.815 103.031 30.8801 103.191 30.938C103.365 30.9958 103.54 31.0247 103.714 31.0247C104.063 31.0247 104.354 30.9524 104.587 30.8078C104.834 30.6632 105.031 30.4896 105.176 30.2872C105.322 30.0702 105.424 29.8461 105.482 29.6147C105.555 29.3688 105.591 29.1591 105.591 28.9856C105.591 28.624 105.533 28.2625 105.416 27.9009C105.3 27.5394 105.147 27.1778 104.958 26.8162C104.784 26.4547 104.587 26.0859 104.369 25.7099C104.165 25.3194 103.976 24.9145 103.802 24.4951Z" fill="black"/>
<path d="M164.398 32.4131C164.456 32.5143 164.485 32.6373 164.485 32.7819C164.485 32.9988 164.405 33.1868 164.245 33.3459C164.1 33.505 163.903 33.5845 163.656 33.5845C163.496 33.5845 163.351 33.5484 163.22 33.4761C163.103 33.4038 163.009 33.2953 162.936 33.1507C162.66 32.6156 162.412 31.9503 162.194 31.1549C161.99 30.345 161.809 29.4484 161.649 28.4649C161.503 27.4815 161.38 26.4258 161.278 25.2977C161.19 24.1552 161.118 22.9765 161.059 21.7617C159.968 21.9063 158.739 22.0654 157.372 22.239C156.019 22.4125 154.47 22.615 152.724 22.8464C151.502 23.0199 150.258 23.1718 148.993 23.3019C145.879 26.6716 142.599 29.2314 139.151 30.9813C135.718 32.7168 132.271 33.5845 128.808 33.5845C127.266 33.5845 125.928 33.4327 124.793 33.129C123.673 32.8397 122.742 32.5143 122 32.1528C121.273 31.7768 120.727 31.4297 120.364 31.1115C119.985 30.7933 119.782 30.6198 119.753 30.5909C119.607 30.4462 119.534 30.2582 119.534 30.0268C119.534 29.7954 119.614 29.6002 119.774 29.4411C119.934 29.282 120.124 29.2025 120.342 29.2025C120.589 29.2025 120.793 29.2893 120.953 29.4628C120.982 29.4917 121.156 29.6436 121.477 29.9184C121.797 30.1787 122.269 30.4607 122.895 30.7644C123.535 31.0681 124.342 31.3429 125.317 31.5888C126.292 31.8346 127.448 31.9575 128.786 31.9575C130.619 31.9575 132.372 31.7117 134.045 31.22C135.718 30.7283 137.297 30.0919 138.78 29.311C140.279 28.5155 141.668 27.6117 142.948 26.5993C144.243 25.587 145.414 24.5601 146.461 23.5189C145.428 23.6056 144.403 23.6707 143.385 23.7141C142.366 23.7575 141.363 23.7792 140.373 23.7792C138.424 23.7792 136.569 23.6707 134.809 23.4538C133.049 23.2369 131.5 22.8753 130.161 22.3691C128.823 21.8485 127.754 21.1615 126.954 20.3083C126.168 19.455 125.775 18.392 125.775 17.1194C125.775 16.5409 125.892 15.9624 126.124 15.3839C126.372 14.8054 126.663 14.2848 126.997 13.822C127.332 13.3448 127.681 12.9615 128.045 12.6723C128.408 12.3686 128.721 12.2167 128.983 12.2167C129.187 12.2167 129.376 12.289 129.55 12.4336C129.725 12.5783 129.812 12.7735 129.812 13.0194C129.812 13.1495 129.783 13.2797 129.725 13.4098C129.667 13.5255 129.579 13.6195 129.463 13.6918C129.434 13.7208 129.31 13.822 129.092 13.9956C128.874 14.1691 128.641 14.4077 128.394 14.7114C128.146 15.0007 127.921 15.355 127.717 15.7744C127.514 16.1793 127.412 16.6204 127.412 17.0977C127.412 17.922 127.695 18.6524 128.263 19.2887C128.845 19.9106 129.681 20.4384 130.772 20.8723C131.878 21.2917 133.231 21.6099 134.831 21.8268C136.431 22.0437 138.257 22.1522 140.308 22.1522C141.486 22.1522 142.73 22.116 144.039 22.0437C145.348 21.9714 146.73 21.863 148.185 21.7183C148.883 20.9518 149.502 20.2287 150.04 19.549C150.578 18.8693 151.036 18.2619 151.415 17.7268C152.04 16.8446 152.695 15.9046 153.379 14.9067C154.062 13.9088 154.739 12.8964 155.408 11.8696C156.092 10.8428 156.753 9.83045 157.394 8.83257C158.048 7.82022 158.659 6.87294 159.227 5.99075C159.794 5.0941 160.303 4.28422 160.754 3.56111C161.205 2.82354 161.576 2.21613 161.867 1.73888C161.954 1.34841 162.085 0.994083 162.26 0.675915C162.434 0.343286 162.718 0.176971 163.111 0.176971C163.329 0.176971 163.54 0.270975 163.743 0.458983C163.947 0.632529 164.049 0.856692 164.049 1.13147C164.049 1.33394 163.976 1.55088 163.831 1.78227C163.685 2.01366 163.547 2.2089 163.416 2.36799C163.372 2.64277 163.3 3.22848 163.198 4.12514C163.111 5.02179 163.016 6.12091 162.914 7.42251C162.827 8.70964 162.747 10.1342 162.674 11.6961C162.616 13.2435 162.587 14.8127 162.587 16.4035C162.587 16.9964 162.587 17.5822 162.587 18.1607C162.587 18.7391 162.601 19.3249 162.631 19.9178C164.813 19.643 166.406 19.455 167.409 19.3538C168.413 19.2381 168.944 19.1802 169.002 19.1802C169.191 19.1802 169.373 19.2598 169.548 19.4189C169.737 19.5635 169.831 19.7587 169.831 20.0046C169.831 20.207 169.759 20.3878 169.613 20.5469C169.482 20.6915 169.308 20.7783 169.09 20.8072C168.828 20.8361 168.522 20.8723 168.173 20.9157C167.824 20.9591 167.395 21.0097 166.886 21.0675C166.376 21.1254 165.78 21.1977 165.096 21.2845C164.413 21.3568 163.613 21.4508 162.696 21.5665C162.74 22.7524 162.805 23.8949 162.892 24.994C162.994 26.0787 163.111 27.091 163.242 28.0311C163.387 28.9711 163.554 29.8171 163.743 30.5692C163.933 31.3212 164.151 31.9358 164.398 32.4131ZM152.506 21.2194C154.222 20.988 155.779 20.7855 157.175 20.612C158.586 20.424 159.859 20.2577 160.994 20.113C160.979 19.4912 160.965 18.8693 160.95 18.2474C160.95 17.6255 160.95 16.9964 160.95 16.3601C160.95 14.3209 160.987 12.3758 161.059 10.5246C161.132 8.65902 161.234 7.03926 161.365 5.66536C160.783 6.57647 160.136 7.58882 159.423 8.70241C158.725 9.80153 157.997 10.9296 157.241 12.0865C156.484 13.2291 155.721 14.3643 154.95 15.4924C154.179 16.6204 153.444 17.6762 152.746 18.6596C152.397 19.1513 152.04 19.6286 151.677 20.0913C151.313 20.5541 150.949 21.0097 150.585 21.458C150.906 21.4291 151.218 21.3929 151.524 21.3496C151.844 21.3062 152.171 21.2628 152.506 21.2194Z" fill="black"/>
<path d="M173.846 23.6056C173.788 23.9961 173.716 24.3649 173.628 24.712C173.541 25.0446 173.454 25.3411 173.366 25.6014C173.294 25.8473 173.228 26.0497 173.17 26.2088C173.112 26.3679 173.075 26.4547 173.061 26.4692C172.915 26.8018 172.661 26.9681 172.297 26.9681C172.094 26.9681 171.904 26.8958 171.73 26.7512C171.555 26.5921 171.468 26.3968 171.468 26.1654C171.468 26.0787 171.483 26.0136 171.512 25.9702C171.541 25.9268 171.584 25.84 171.643 25.7099C171.701 25.5797 171.773 25.3628 171.861 25.0591C171.948 24.7554 172.057 24.2854 172.188 23.649C171.941 23.649 171.686 23.6418 171.424 23.6273C171.163 23.6129 170.922 23.5623 170.704 23.4755C170.472 23.3887 170.282 23.2513 170.137 23.0633C169.991 22.8753 169.919 22.615 169.919 22.2824C169.919 22.0365 169.991 21.7039 170.137 21.2845C170.268 20.8651 170.45 20.4529 170.682 20.048C170.915 19.643 171.177 19.2959 171.468 19.0067C171.759 18.703 172.05 18.5511 172.341 18.5511C172.675 18.5511 172.945 18.6741 173.148 18.9199C173.366 19.1658 173.534 19.4695 173.65 19.831C173.766 20.1781 173.846 20.5469 173.89 20.9374C173.948 21.3279 173.977 21.6677 173.977 21.957C174.225 21.957 174.465 21.957 174.697 21.957C174.945 21.9425 175.178 21.9353 175.396 21.9353C176.225 21.9353 176.858 22.116 177.294 22.4776C177.731 22.8392 177.949 23.4321 177.949 24.2564C177.949 24.5891 177.927 24.9362 177.883 25.2977C177.84 25.6593 177.789 26.0353 177.731 26.4258C177.672 26.8018 177.621 27.1778 177.578 27.5538C177.534 27.9298 177.512 28.2986 177.512 28.6602C177.512 29.1808 177.585 29.6147 177.731 29.9618C177.876 30.2944 178.058 30.5619 178.276 30.7644C178.494 30.9669 178.727 31.1115 178.974 31.1983C179.222 31.2706 179.447 31.3067 179.651 31.3067C180.276 31.3067 180.865 31.1043 181.418 30.6993C181.971 30.2944 182.48 29.8099 182.946 29.2459C183.411 28.6674 183.826 28.06 184.19 27.4237C184.568 26.7873 184.881 26.2305 185.128 25.7533C185.201 25.6231 185.302 25.5219 185.433 25.4496C185.564 25.3773 185.702 25.3411 185.848 25.3411C186.11 25.3411 186.313 25.4279 186.459 25.6014C186.604 25.7605 186.677 25.9413 186.677 26.1438C186.677 26.2884 186.648 26.4185 186.59 26.5342C186.255 27.1272 185.862 27.7997 185.411 28.5517C184.975 29.2893 184.473 29.9835 183.906 30.6343C183.339 31.285 182.698 31.8346 181.986 32.2829C181.287 32.7313 180.516 32.9554 179.673 32.9554C179.149 32.9554 178.654 32.8542 178.189 32.6517C177.723 32.4637 177.316 32.1889 176.967 31.8274C176.632 31.4514 176.363 30.9958 176.159 30.4607C175.956 29.9111 175.854 29.2965 175.854 28.6168C175.854 27.8937 175.927 27.1778 176.072 26.4692C176.218 25.746 176.29 25.0591 176.29 24.4083C176.29 24.1335 176.225 23.931 176.094 23.8009C175.978 23.6563 175.709 23.584 175.287 23.584C175.083 23.584 174.857 23.584 174.61 23.584C174.377 23.584 174.123 23.5912 173.846 23.6056ZM172.384 22.0003C172.384 21.8991 172.377 21.769 172.363 21.6099C172.363 21.4363 172.348 21.27 172.319 21.1109C172.304 20.9518 172.275 20.8145 172.232 20.6988C172.203 20.5831 172.166 20.5252 172.123 20.5252C172.079 20.5252 172.021 20.5831 171.948 20.6988C171.89 20.8 171.824 20.9302 171.752 21.0892C171.679 21.2339 171.613 21.3929 171.555 21.5665C171.497 21.74 171.453 21.8847 171.424 22.0003H172.384Z" fill="black"/>
<path d="M190.627 29.8533C190.874 30.4029 191.281 30.844 191.849 31.1766C192.416 31.4947 193.056 31.6538 193.769 31.6538C193.987 31.6538 194.343 31.6249 194.838 31.5671C195.333 31.4947 195.9 31.2778 196.54 30.9163C197.195 30.5402 197.886 29.9545 198.613 29.1591C199.34 28.3637 200.046 27.2429 200.73 25.7967C200.802 25.6376 200.904 25.5219 201.035 25.4496C201.166 25.3628 201.312 25.3194 201.472 25.3194C201.719 25.3194 201.915 25.4062 202.061 25.5797C202.221 25.7533 202.301 25.9413 202.301 26.1438C202.301 26.2305 202.272 26.3462 202.214 26.4908C201.704 27.5466 201.137 28.4939 200.512 29.3327C199.886 30.157 199.21 30.8656 198.482 31.4586C197.755 32.0371 196.991 32.4782 196.191 32.7819C195.405 33.1 194.598 33.2591 193.769 33.2591C193.114 33.2591 192.496 33.1579 191.914 32.9554C191.347 32.753 190.852 32.4854 190.43 32.1528C190.023 31.8057 189.696 31.4224 189.448 31.003C189.216 30.5692 189.099 30.1281 189.099 29.6797C189.099 29.6219 189.106 29.5424 189.121 29.4411C189.136 29.3399 189.172 29.2314 189.23 29.1157C189.303 28.9856 189.397 28.8699 189.514 28.7686C189.645 28.6529 189.819 28.5589 190.038 28.4866C190.634 28.3131 191.179 28.1034 191.674 27.8575C192.183 27.5972 192.62 27.308 192.983 26.9898C193.347 26.6716 193.631 26.3245 193.834 25.9485C194.038 25.558 194.14 25.1386 194.14 24.6903C194.14 24.2998 194.009 23.9817 193.747 23.7358C193.485 23.49 193.165 23.367 192.787 23.367C192.394 23.367 192.009 23.5044 191.63 23.7792C191.252 24.0395 190.881 24.3938 190.518 24.8422C190.168 25.276 189.834 25.7822 189.514 26.3607C189.194 26.9247 188.896 27.5177 188.619 28.1395C188.357 28.7614 188.125 29.3833 187.921 30.0051C187.717 30.6126 187.55 31.1766 187.419 31.6972C187.375 31.8563 187.324 32.0298 187.266 32.2179C187.223 32.4059 187.15 32.5794 187.048 32.7385C186.946 32.912 186.823 33.0494 186.677 33.1507C186.532 33.2664 186.343 33.3242 186.11 33.3242C185.892 33.3242 185.681 33.2302 185.477 33.0422C185.273 32.8687 185.171 32.5649 185.171 32.1311C185.171 32.0443 185.171 31.7117 185.171 31.1332C185.186 30.5547 185.201 29.8027 185.215 28.8771C185.23 27.9371 185.244 26.8669 185.259 25.6665C185.288 24.4517 185.31 23.1718 185.324 21.8268C185.339 20.4674 185.361 19.0718 185.39 17.64C185.419 16.2083 185.441 14.8127 185.455 13.4532C185.47 12.0938 185.484 10.8066 185.499 9.59183C185.528 8.36255 185.55 7.27788 185.564 6.33785C185.579 5.38334 185.586 4.60962 185.586 4.01667C185.601 3.40926 185.608 3.04771 185.608 2.93201C185.608 2.70062 185.695 2.51261 185.87 2.36799C186.044 2.2089 186.233 2.12936 186.437 2.12936C186.67 2.12936 186.866 2.2089 187.026 2.36799C187.186 2.51261 187.266 2.70785 187.266 2.9537C187.266 2.98263 187.259 3.27187 187.244 3.82143C187.244 4.35653 187.237 5.07964 187.223 5.99075C187.208 6.90187 187.186 7.96484 187.157 9.17966C187.143 10.3945 187.121 11.6888 187.092 13.0627C187.077 14.4222 187.055 15.825 187.026 17.2712C187.012 18.7174 186.99 20.1275 186.961 21.5014C186.946 22.8753 186.932 24.1841 186.917 25.4279C186.903 26.6716 186.888 27.7707 186.873 28.7252C187.106 27.9877 187.404 27.214 187.768 26.4041C188.132 25.5797 188.561 24.8205 189.056 24.1263C189.55 23.4321 190.103 22.8608 190.714 22.4125C191.339 21.9642 192.03 21.74 192.787 21.74C193.209 21.74 193.602 21.8196 193.965 21.9787C194.329 22.1233 194.642 22.333 194.904 22.6078C195.18 22.8681 195.391 23.179 195.536 23.5406C195.696 23.9021 195.776 24.2926 195.776 24.712C195.776 25.3628 195.631 25.963 195.34 26.5125C195.049 27.0476 194.664 27.5321 194.183 27.966C193.703 28.3854 193.151 28.7542 192.525 29.0723C191.914 29.3905 191.281 29.6508 190.627 29.8533Z" fill="black"/>
<path d="M94.0777 46.1002V45.124C94.8346 45.368 95.5997 45.49 96.373 45.49C97.4 45.49 97.9134 45.185 97.9134 44.5749C97.9134 44.0054 97.5554 43.7207 96.8394 43.7207H95.9189C94.5278 43.7207 93.8323 43.0902 93.8323 41.8293C93.8323 40.6091 94.7262 39.9989 96.5142 39.9989C97.2833 39.9989 98.0464 40.1006 98.8033 40.304V41.2802C98.0464 41.0361 97.2833 40.9141 96.5142 40.9141C95.4422 40.9141 94.9062 41.2192 94.9062 41.8293C94.9062 42.3988 95.2438 42.6835 95.9189 42.6835H96.8394C98.3123 42.6835 99.0488 43.3139 99.0488 44.5749C99.0488 45.7951 98.1569 46.4052 96.373 46.4052C95.5997 46.4052 94.8346 46.3035 94.0777 46.1002Z" fill="black"/>
<path d="M103.24 39.9989C105.073 39.9989 105.99 40.8999 105.99 42.7018C105.99 42.958 105.971 43.2326 105.935 43.5254H101.412C101.412 44.8352 102.181 45.49 103.719 45.49C104.451 45.49 105.102 45.4087 105.671 45.246V46.1612C105.102 46.3239 104.411 46.4052 103.596 46.4052C101.383 46.4052 100.276 45.3131 100.276 43.1289C100.276 41.0423 101.264 39.9989 103.24 39.9989ZM101.412 42.5859H104.897C104.873 41.4632 104.321 40.9019 103.24 40.9019C102.095 40.9019 101.485 41.4632 101.412 42.5859Z" fill="black"/>
<path d="M107.518 46.4052V39.9989H108.285L108.488 40.8165C109.052 40.2715 109.731 39.9989 110.525 39.9989V40.9385C109.756 40.9385 109.132 41.209 108.653 41.75V46.4052H107.518Z" fill="black"/>
<path d="M110.746 39.9989H111.974L113.821 45.0202L115.656 39.9989H116.883L114.263 46.4052H113.207L110.746 39.9989Z" fill="black"/>
<path d="M120.461 39.9989C122.294 39.9989 123.211 40.8999 123.211 42.7018C123.211 42.958 123.192 43.2326 123.155 43.5254H118.632C118.632 44.8352 119.401 45.49 120.94 45.49C121.672 45.49 122.323 45.4087 122.891 45.246V46.1612C122.323 46.3239 121.631 46.4052 120.817 46.4052C118.604 46.4052 117.497 45.3131 117.497 43.1289C117.497 41.0423 118.485 39.9989 120.461 39.9989ZM118.632 42.5859H122.118C122.094 41.4632 121.541 40.9019 120.461 40.9019C119.316 40.9019 118.706 41.4632 118.632 42.5859Z" fill="black"/>
<path d="M128.636 43.1777C128.636 44.7192 129.28 45.49 130.569 45.49C131.858 45.49 132.502 44.7192 132.502 43.1777C132.502 41.6686 131.858 40.9141 130.569 40.9141C129.28 40.9141 128.636 41.6686 128.636 43.1777ZM127.5 43.2021C127.5 41.0667 128.523 39.9989 130.569 39.9989C132.615 39.9989 133.638 41.0667 133.638 43.2021C133.638 45.3334 132.615 46.3991 130.569 46.3991C128.531 46.3991 127.509 45.3334 127.5 43.2021Z" fill="black"/>
<path d="M140.726 39.9989V46.4052H139.946L139.75 45.5877C138.969 46.1327 138.183 46.4052 137.393 46.4052C135.912 46.4052 135.172 45.61 135.172 44.0196V39.9989H136.307V44.0379C136.307 44.9897 136.782 45.4656 137.731 45.4656C138.382 45.4656 139.001 45.1951 139.59 44.6542V39.9989H140.726Z" fill="black"/>
<path d="M142.573 46.4052V39.9989H143.34L143.543 40.8165C144.107 40.2715 144.787 39.9989 145.58 39.9989V40.9385C144.811 40.9385 144.187 41.209 143.709 41.75V46.4052H142.573Z" fill="black"/>
<path d="M151.048 37.6805V45.49H155.639V46.4052H149.913V37.6805H151.048Z" fill="black"/>
<path d="M157.701 43.1777C157.701 44.7192 158.346 45.49 159.634 45.49C160.923 45.49 161.567 44.7192 161.567 43.1777C161.567 41.6686 160.923 40.9141 159.634 40.9141C158.346 40.9141 157.701 41.6686 157.701 43.1777ZM156.566 43.2021C156.566 41.0667 157.589 39.9989 159.634 39.9989C161.68 39.9989 162.703 41.0667 162.703 43.2021C162.703 45.3334 161.68 46.3991 159.634 46.3991C157.597 46.3991 156.574 45.3334 156.566 43.2021Z" fill="black"/>
<path d="M164.237 46.4052V39.9989H165.004L165.207 40.8165C165.771 40.2715 166.451 39.9989 167.244 39.9989V40.9385C166.475 40.9385 165.851 41.209 165.372 41.75V46.4052H164.237Z" fill="black"/>
<path d="M172.712 41.3046C172.254 41.085 171.731 40.9751 171.141 40.9751C169.844 40.9751 169.196 41.6605 169.196 43.0312C169.196 44.6542 169.844 45.4656 171.141 45.4656C171.731 45.4656 172.254 45.3863 172.712 45.2277V41.3046ZM173.848 46.0208C173.066 46.2771 172.103 46.4052 170.957 46.4052C169.038 46.4052 168.079 45.2948 168.079 43.074C168.079 41.0239 169.098 39.9989 171.135 39.9989C171.692 39.9989 172.217 40.1006 172.712 40.304V37.6805H173.848V46.0208Z" fill="black"/>
<path d="M176.517 45.2765V46.4052H175.382V45.2765H176.517Z" fill="black"/>
<path d="M178.886 45.2765V46.4052H177.751V45.2765H178.886Z" fill="black"/>
<path d="M181.255 45.2765V46.4052H180.12V45.2765H181.255Z" fill="black"/>
<path d="M36.2676 37.6805H37.3661L38.5997 45.2704L41.0791 37.6805H42.2144L44.8718 45.2704L46.2649 37.6805H47.3144L45.6635 46.4052H44.1169L41.6375 39.096L39.2379 46.4052H37.7098L36.2676 37.6805Z" fill="black"/>
<path d="M51.1991 39.9989C53.0321 39.9989 53.9486 40.8999 53.9486 42.7018C53.9486 42.958 53.9302 43.2326 53.8933 43.5254H49.3703C49.3703 44.8352 50.1395 45.49 51.6778 45.49C52.4102 45.49 53.0607 45.4087 53.6294 45.246V46.1612C53.0607 46.3239 52.3693 46.4052 51.5551 46.4052C49.3416 46.4052 48.2349 45.3131 48.2349 43.1289C48.2349 41.0423 49.223 39.9989 51.1991 39.9989ZM49.3703 42.5859H52.8562C52.8316 41.4632 52.2793 40.9019 51.1991 40.9019C50.0536 40.9019 49.4439 41.4632 49.3703 42.5859Z" fill="black"/>
<path d="M57.8395 39.9989H58.9871L60.1286 45.0202L61.8041 39.9989H62.829L64.621 45.0202L65.652 39.9989H66.8549L65.1733 46.4052H64.1362L62.2889 41.6158L60.5337 46.4052H59.472L57.8395 39.9989Z" fill="black"/>
<path d="M69.2545 39.9989V46.4052H68.1191V39.9989H69.2545ZM69.2545 37.6805V38.7482H68.1191V37.6805H69.2545Z" fill="black"/>
<path d="M72.4212 37.6805V46.4052H71.2859V37.6805H72.4212Z" fill="black"/>
<path d="M75.5266 37.6805V46.4052H74.3913V37.6805H75.5266Z" fill="black"/>
</svg>
