<svg width="44" height="42" viewBox="0 0 44 42" fill="none" xmlns="http://www.w3.org/2000/svg">
<path d="M38.8314 6.74241H40.7437C42.5421 6.74241 44 5.30529 44 3.53252C44 2.82085 43.7601 2.12936 43.3179 1.56675L43.2138 1.43426C42.2444 0.200786 40.5943 -0.300672 39.0886 0.180684L32.0383 2.43466C32.0383 2.43466 34.5692 3.56932 35.9139 4.47216C37.1136 5.27768 38.8314 6.74241 38.8314 6.74241Z" fill="black"/>
<path d="M20.6627 20.8644C20.123 19.3627 19.8532 17.0573 19.8532 13.9483C19.8532 10.5496 20.2175 7.96755 20.946 6.20229C21.6745 4.41069 23.1316 3.51489 25.3173 3.51489C27.314 3.51489 28.7172 4.34482 29.5267 6.00469C30.3631 7.66455 30.7814 10.3124 30.7814 13.9483C30.7814 17.3735 30.3901 19.9818 29.6076 21.7734C28.8251 23.5387 27.395 24.4213 25.3173 24.4213C23.0237 24.4213 21.4722 23.2357 20.6627 20.8644Z" fill="black"/>
<path d="M38.6291 34.6943C41.3052 31.1673 42.89 26.7889 42.89 22.0457C42.89 19.9029 42.5666 17.8346 41.9652 15.8857C41.6818 20.4521 39.2221 23.6135 34.586 25.3698C31.9956 26.371 28.7711 26.8716 24.9125 26.8716C24.0761 26.8716 23.5229 26.8584 23.2531 26.8321C23.0102 26.8057 22.6325 26.7925 22.1198 26.7925C21.3103 26.9243 20.4603 27.3458 19.5699 28.0572C18.6524 28.7949 18.1937 29.6776 18.1937 30.7051C18.1937 31.5219 18.4231 32.1542 18.8818 32.6021C19.3405 33.05 19.9746 33.3266 20.7841 33.432C21.1888 33.4847 22.0523 33.5374 23.3745 33.5901C24.6967 33.6164 25.722 33.6296 26.4506 33.6296L31.8337 33.7087C34.4589 33.754 36.724 34.0826 38.6291 34.6943Z" fill="black"/>
<path d="M23.2119 0.977249C19.0379 1.26633 15.6517 2.44154 13.0534 4.5029C10.0313 6.90049 8.52023 9.94358 8.52023 13.6322C8.52023 16.5567 9.38369 19.0465 11.1106 21.1016C12.8375 23.1566 15.1041 24.7375 17.9104 25.8441V26.3973C15.9676 27.0297 13.9708 28.1494 11.9201 29.7566C9.89637 31.3638 8.8845 33.3003 8.8845 35.5661C8.8845 37.4631 9.5321 38.9781 10.8273 40.111C11.5558 40.7433 12.7296 41.3625 14.3486 41.9685V42C5.9923 39.1125 0 31.2689 0 22.0457C0 10.3708 9.60125 0.906524 21.445 0.906524C22.0399 0.906524 22.6292 0.930405 23.2119 0.977249Z" fill="black"/>
</svg>
