<svg width="51" height="60" viewBox="0 0 51 60" fill="none" xmlns="http://www.w3.org/2000/svg">
<rect width="48" height="60" fill="white"/>
<path d="M37.8435 27.3797C37.1234 26.8153 36.7876 25.9149 36.7876 25V25V25C36.7876 24.0851 37.1234 23.1847 37.8435 22.6203L39.8409 21.055C40.1253 20.83 40.2001 20.425 40.0205 20.095L37.027 14.905C36.8923 14.665 36.6379 14.53 36.3685 14.53C36.2787 14.53 36.1889 14.545 36.114 14.575L33.7486 15.527C32.9052 15.8665 31.958 15.7136 31.1726 15.2554V15.2554C30.3877 14.7974 29.7787 14.0526 29.65 13.153L29.289 10.63C29.2441 10.27 28.9298 10 28.5556 10H22.5687C22.1945 10 21.8802 10.27 21.8353 10.63L21.4757 13.1431C21.3461 14.0489 20.731 14.8019 19.9426 15.2663V15.2663C19.1636 15.7253 18.2245 15.8687 17.3857 15.5311L15.0102 14.575C14.9204 14.545 14.8306 14.53 14.7408 14.53C14.4864 14.53 14.2319 14.665 14.0972 14.905L11.1038 20.095C10.9092 20.425 10.999 20.83 11.2834 21.055L13.2808 22.6204C14.0009 23.1847 14.3367 24.0851 14.3367 25V25V25C14.3367 25.9149 14.0009 26.8153 13.2808 27.3796L11.2834 28.945C10.999 29.17 10.9242 29.575 11.1038 29.905L14.0972 35.095C14.2319 35.335 14.4864 35.47 14.7558 35.47C14.8456 35.47 14.9354 35.455 15.0102 35.425L17.3756 34.473C18.2191 34.1335 19.1663 34.2864 19.9516 34.7446V34.7446C20.7366 35.2026 21.3456 35.9474 21.4743 36.847L21.8353 39.37C21.8802 39.73 22.1945 40 22.5687 40H28.5556C28.9298 40 29.2441 39.73 29.289 39.37L29.6486 36.8569C29.7782 35.9511 30.3932 35.1981 31.1816 34.7337V34.7337C31.9607 34.2747 32.8998 34.1313 33.7386 34.4689L36.114 35.425C36.2038 35.455 36.2936 35.47 36.3834 35.47C36.6379 35.47 36.8923 35.335 37.027 35.095L40.0205 29.905C40.2001 29.575 40.1253 29.17 39.8409 28.945L37.8435 27.3797ZM33.7193 23.905C33.7791 24.37 33.7941 24.685 33.7941 25C33.7941 25.315 33.7642 25.645 33.7193 26.095V26.095C33.5901 27.14 34.0149 28.1882 34.8418 28.84V28.84L35.6309 29.4551C36.1052 29.8248 36.2345 30.4877 35.9338 31.0086V31.0086C35.6337 31.5285 34.9966 31.7484 34.4396 31.5242L33.5097 31.15V31.15C32.5444 30.7593 31.4364 30.9113 30.6061 31.54V31.54C29.9625 32.02 29.3488 32.38 28.7352 32.635V32.635C27.7535 33.0341 27.0574 33.9257 26.9092 34.975V34.975L26.7625 35.9673C26.6748 36.5606 26.1657 37 25.566 37V37C24.9629 37 24.452 36.5558 24.3682 35.9587L24.23 34.975V34.975C24.0818 33.9257 23.3858 33.0341 22.404 32.635V32.635C21.7604 32.365 21.1618 32.02 20.5631 31.57V31.57C19.7232 30.9225 18.5969 30.7656 17.6145 31.165V31.165L16.6846 31.5392C16.1276 31.7634 15.4906 31.5435 15.1904 31.0236V31.0236C14.8898 30.5027 15.019 29.8398 15.4934 29.4701L16.2824 28.855V28.855C17.1094 28.2032 17.5342 27.155 17.405 26.11V26.11C17.3601 25.645 17.3301 25.3 17.3301 25C17.3301 24.7 17.3601 24.355 17.405 23.905V23.905C17.5342 22.86 17.1094 21.8118 16.2824 21.16V21.16L15.4934 20.5449C15.019 20.1752 14.8898 19.5123 15.1904 18.9914V18.9914C15.4906 18.4715 16.1276 18.2516 16.6846 18.4758L17.6145 18.85V18.85C18.5799 19.2407 19.6879 19.0887 20.5182 18.46V18.46C21.1618 17.98 21.7754 17.62 22.3891 17.365V17.365C23.3708 16.9659 24.0668 16.0743 24.2151 15.025V15.025L24.3629 14.0253C24.4499 13.4363 24.9554 13 25.5508 13V13C26.1495 13 26.6568 13.441 26.7401 14.0339L26.8792 15.025V15.025C27.0275 16.0743 27.7235 16.9659 28.7053 17.365V17.365C29.3488 17.635 29.9475 17.98 30.5462 18.43V18.43C31.3861 19.0775 32.5124 19.2344 33.4948 18.835V18.835L34.4196 18.4628C34.9795 18.2375 35.6198 18.4585 35.9216 18.9811V18.9811C36.2215 19.5007 36.0961 20.1614 35.6268 20.535L34.8418 21.16V21.16C34.0149 21.8118 33.5901 22.86 33.7193 23.905V23.905ZM25.5621 19C22.2544 19 19.5752 21.685 19.5752 25C19.5752 28.315 22.2544 31 25.5621 31C28.8699 31 31.549 28.315 31.549 25C31.549 21.685 28.8699 19 25.5621 19ZM25.5621 28C23.9157 28 22.5687 26.65 22.5687 25C22.5687 23.35 23.9157 22 25.5621 22C27.2085 22 28.5556 23.35 28.5556 25C28.5556 26.65 27.2085 28 25.5621 28Z" fill="black"/>
<path d="M4.34227 54.76C4.75027 54.76 5.08627 54.712 5.35027 54.616C5.62227 54.512 5.82227 54.348 5.95027 54.124C6.08627 53.9 6.15427 53.604 6.15427 53.236C6.15427 52.908 6.08627 52.64 5.95027 52.432C5.81427 52.216 5.63027 52.044 5.39827 51.916C5.16627 51.78 4.90627 51.668 4.61827 51.58C4.33027 51.492 4.03427 51.412 3.73027 51.34C3.37827 51.244 3.03827 51.144 2.71027 51.04C2.39027 50.928 2.10227 50.784 1.84627 50.608C1.59027 50.424 1.38627 50.188 1.23427 49.9C1.09027 49.604 1.01827 49.232 1.01827 48.784C1.01827 48.328 1.12227 47.936 1.33027 47.608C1.54627 47.272 1.85027 47.012 2.24227 46.828C2.63427 46.644 3.09427 46.552 3.62227 46.552C4.04627 46.552 4.42227 46.616 4.75027 46.744C5.08627 46.872 5.37427 47.088 5.61427 47.392C5.85427 47.688 6.03427 48.1 6.15427 48.628L5.86627 48.376L6.01027 46.708H6.75427V49.156H5.95027C5.83027 48.748 5.66227 48.404 5.44627 48.124C5.23827 47.844 4.98627 47.632 4.69027 47.488C4.39427 47.344 4.05427 47.272 3.67027 47.272C3.28627 47.272 2.97027 47.328 2.72227 47.44C2.48227 47.552 2.30627 47.716 2.19427 47.932C2.08227 48.14 2.02627 48.392 2.02627 48.688C2.02627 48.984 2.08627 49.228 2.20627 49.42C2.33427 49.604 2.50627 49.756 2.72227 49.876C2.93827 49.988 3.19027 50.088 3.47827 50.176C3.76627 50.256 4.07427 50.34 4.40227 50.428C4.74627 50.516 5.08227 50.616 5.41027 50.728C5.74627 50.84 6.05027 50.988 6.32227 51.172C6.60227 51.356 6.82227 51.596 6.98227 51.892C7.14227 52.18 7.22227 52.544 7.22227 52.984C7.22227 53.552 7.09427 54.024 6.83827 54.4C6.59027 54.768 6.25027 55.044 5.81827 55.228C5.39427 55.404 4.91027 55.492 4.36627 55.492C3.86227 55.492 3.39827 55.416 2.97427 55.264C2.55827 55.104 2.20227 54.848 1.90627 54.496C1.61827 54.136 1.41827 53.652 1.30627 53.044L1.67827 53.38L1.53427 55.348H0.754272V52.528H1.57027C1.69027 53.016 1.87827 53.428 2.13427 53.764C2.39027 54.1 2.70227 54.352 3.07027 54.52C3.44627 54.68 3.87027 54.76 4.34227 54.76Z" fill="black"/>
<path d="M9.66015 52.132C9.66015 52.596 9.71215 52.992 9.81615 53.32C9.92815 53.648 10.0841 53.912 10.2841 54.112C10.4841 54.312 10.7121 54.46 10.9681 54.556C11.2321 54.652 11.5161 54.7 11.8201 54.7C12.1561 54.7 12.4481 54.64 12.6961 54.52C12.9441 54.4 13.1561 54.248 13.3321 54.064C13.5161 53.88 13.6721 53.684 13.8001 53.476L14.3761 53.944C14.2241 54.224 14.0241 54.48 13.7761 54.712C13.5281 54.936 13.2361 55.112 12.9001 55.24C12.5721 55.36 12.2041 55.42 11.7961 55.42C11.1881 55.42 10.6401 55.292 10.1521 55.036C9.66415 54.78 9.27615 54.404 8.98815 53.908C8.70815 53.412 8.56815 52.816 8.56815 52.12C8.56815 51.44 8.69615 50.848 8.95215 50.344C9.21615 49.832 9.57215 49.436 10.0201 49.156C10.4761 48.868 10.9961 48.724 11.5801 48.724C12.0521 48.724 12.4601 48.8 12.8041 48.952C13.1481 49.104 13.4361 49.332 13.6681 49.636C13.9001 49.94 14.0761 50.32 14.1961 50.776C14.3161 51.232 14.3761 51.764 14.3761 52.372H9.40815V51.676H13.5841L13.2721 51.94C13.2561 51.484 13.2121 51.1 13.1401 50.788C13.0761 50.468 12.9761 50.212 12.8401 50.02C12.7121 49.82 12.5441 49.676 12.3361 49.588C12.1281 49.5 11.8761 49.456 11.5801 49.456C11.3001 49.456 11.0401 49.512 10.8001 49.624C10.5681 49.728 10.3641 49.892 10.1881 50.116C10.0201 50.34 9.88815 50.62 9.79215 50.956C9.70415 51.292 9.66015 51.684 9.66015 52.132Z" fill="black"/>
<path d="M15.0742 49.564V48.904H15.2062C15.4782 48.904 15.7062 48.888 15.8902 48.856C16.0742 48.816 16.2102 48.74 16.2982 48.628C16.3942 48.516 16.4422 48.348 16.4422 48.124L17.2222 48.844H19.5142V49.564H15.0742ZM17.4262 53.332C17.4262 53.668 17.4742 53.932 17.5702 54.124C17.6662 54.316 17.8062 54.452 17.9902 54.532C18.1742 54.612 18.3942 54.652 18.6502 54.652C18.8582 54.652 19.0502 54.64 19.2262 54.616C19.4022 54.584 19.5222 54.56 19.5862 54.544V55.264C19.5062 55.288 19.4062 55.312 19.2862 55.336C19.1662 55.36 19.0422 55.38 18.9142 55.396C18.7862 55.412 18.6542 55.42 18.5182 55.42C18.1422 55.42 17.7902 55.364 17.4622 55.252C17.1342 55.14 16.8662 54.936 16.6582 54.64C16.4582 54.336 16.3582 53.904 16.3582 53.344V49.024L16.4422 48.928V47.008H17.4262V53.332Z" fill="black"/>
<path d="M20.1836 49.564V48.904H20.3156C20.5876 48.904 20.8156 48.888 20.9996 48.856C21.1836 48.816 21.3196 48.74 21.4076 48.628C21.5036 48.516 21.5516 48.348 21.5516 48.124L22.3316 48.844H24.6236V49.564H20.1836ZM22.5356 53.332C22.5356 53.668 22.5836 53.932 22.6796 54.124C22.7756 54.316 22.9156 54.452 23.0996 54.532C23.2836 54.612 23.5036 54.652 23.7596 54.652C23.9676 54.652 24.1596 54.64 24.3356 54.616C24.5116 54.584 24.6316 54.56 24.6956 54.544V55.264C24.6156 55.288 24.5156 55.312 24.3956 55.336C24.2756 55.36 24.1516 55.38 24.0236 55.396C23.8956 55.412 23.7636 55.42 23.6276 55.42C23.2516 55.42 22.8996 55.364 22.5716 55.252C22.2436 55.14 21.9756 54.936 21.7676 54.64C21.5676 54.336 21.4676 53.904 21.4676 53.344V49.024L21.5516 48.928V47.008H22.5356V53.332Z" fill="black"/>
<path d="M27.129 47.524C26.897 47.524 26.709 47.46 26.565 47.332C26.421 47.204 26.349 47.012 26.349 46.756C26.349 46.508 26.421 46.32 26.565 46.192C26.709 46.064 26.897 46 27.129 46C27.353 46 27.537 46.064 27.681 46.192C27.833 46.32 27.909 46.508 27.909 46.756C27.909 47.012 27.833 47.204 27.681 47.332C27.537 47.46 27.353 47.524 27.129 47.524ZM27.741 48.844V54.1C27.741 54.348 27.833 54.512 28.017 54.592C28.201 54.672 28.449 54.712 28.761 54.712H28.797V55.288H25.629V54.712H25.665C25.977 54.712 26.225 54.672 26.409 54.592C26.593 54.512 26.685 54.348 26.685 54.1V50.032C26.685 49.856 26.609 49.74 26.457 49.684C26.305 49.62 26.069 49.556 25.749 49.492L25.629 49.468V48.844H27.741Z" fill="black"/>
<path d="M29.6485 55.288V54.712H29.6845C29.8925 54.712 30.0725 54.696 30.2245 54.664C30.3765 54.624 30.4925 54.556 30.5725 54.46C30.6525 54.356 30.6925 54.216 30.6925 54.04V50.032C30.6925 49.912 30.6565 49.824 30.5845 49.768C30.5205 49.704 30.4205 49.652 30.2845 49.612C30.1485 49.572 29.9765 49.532 29.7685 49.492L29.6485 49.468V48.844H31.5685L31.7125 50.212L31.7605 50.272V54.592C31.7605 54.616 31.8085 54.64 31.9045 54.664C32.0005 54.68 32.1165 54.692 32.2525 54.7C32.3885 54.708 32.5125 54.712 32.6245 54.712H32.6725V55.288H29.6485ZM36.9205 55.288H33.8965V54.712H33.9325C34.0445 54.712 34.1685 54.708 34.3045 54.7C34.4405 54.692 34.5565 54.68 34.6525 54.664C34.7565 54.64 34.8085 54.616 34.8085 54.592V50.668C34.8085 50.404 34.7725 50.188 34.7005 50.02C34.6365 49.852 34.5285 49.728 34.3765 49.648C34.2245 49.56 34.0205 49.516 33.7645 49.516C33.5005 49.516 33.2405 49.568 32.9845 49.672C32.7365 49.776 32.4925 49.932 32.2525 50.14C32.0205 50.348 31.7845 50.616 31.5445 50.944V50.296C31.7765 49.952 32.0205 49.664 32.2765 49.432C32.5325 49.2 32.8045 49.024 33.0925 48.904C33.3885 48.784 33.7045 48.724 34.0405 48.724C34.4325 48.724 34.7605 48.792 35.0245 48.928C35.2965 49.056 35.5045 49.256 35.6485 49.528C35.8005 49.792 35.8765 50.128 35.8765 50.536V54.04C35.8765 54.216 35.9165 54.356 35.9965 54.46C36.0765 54.556 36.1925 54.624 36.3445 54.664C36.4965 54.696 36.6765 54.712 36.8845 54.712H36.9205V55.288Z" fill="black"/>
<path d="M44.6701 49.564C44.3021 49.548 43.9861 49.544 43.7221 49.552C43.4661 49.56 43.2461 49.584 43.0621 49.624C42.8861 49.664 42.7381 49.732 42.6181 49.828L42.4381 49.78C42.5421 49.524 42.6661 49.304 42.8101 49.12C42.9541 48.936 43.1141 48.788 43.2901 48.676C43.4741 48.564 43.6781 48.488 43.9021 48.448C44.1341 48.408 44.3901 48.4 44.6701 48.424V49.564ZM40.8181 53.332C40.3221 53.332 39.8821 53.24 39.4981 53.056C39.1221 52.864 38.8261 52.596 38.6101 52.252C38.4021 51.908 38.2981 51.504 38.2981 51.04C38.2981 50.584 38.4061 50.184 38.6221 49.84C38.8381 49.488 39.1341 49.216 39.5101 49.024C39.8941 48.824 40.3301 48.724 40.8181 48.724C41.3141 48.724 41.7541 48.824 42.1381 49.024C42.5221 49.216 42.8221 49.488 43.0381 49.84C43.2541 50.184 43.3621 50.584 43.3621 51.04C43.3621 51.504 43.2541 51.908 43.0381 52.252C42.8221 52.596 42.5221 52.864 42.1381 53.056C41.7621 53.24 41.3221 53.332 40.8181 53.332ZM40.8181 52.624C41.1381 52.624 41.4061 52.564 41.6221 52.444C41.8461 52.324 42.0141 52.148 42.1261 51.916C42.2381 51.676 42.2941 51.384 42.2941 51.04C42.2941 50.696 42.2381 50.404 42.1261 50.164C42.0141 49.924 41.8461 49.744 41.6221 49.624C41.4061 49.496 41.1381 49.432 40.8181 49.432C40.5061 49.432 40.2421 49.496 40.0261 49.624C39.8101 49.744 39.6461 49.924 39.5341 50.164C39.4221 50.404 39.3661 50.696 39.3661 51.04C39.3661 51.384 39.4221 51.676 39.5341 51.916C39.6461 52.148 39.8101 52.324 40.0261 52.444C40.2421 52.564 40.5061 52.624 40.8181 52.624ZM40.2901 58.216C39.7701 58.216 39.3061 58.164 38.8981 58.06C38.4981 57.964 38.1821 57.804 37.9501 57.58C37.7181 57.364 37.6021 57.076 37.6021 56.716C37.6021 56.484 37.6541 56.28 37.7581 56.104C37.8621 55.928 38.0221 55.764 38.2381 55.612C38.4541 55.46 38.7261 55.3 39.0541 55.132L39.4141 55.36C39.2061 55.504 39.0381 55.64 38.9101 55.768C38.7901 55.904 38.7021 56.036 38.6461 56.164C38.5981 56.292 38.5741 56.432 38.5741 56.584C38.5741 56.776 38.6301 56.936 38.7421 57.064C38.8621 57.2 39.0501 57.304 39.3061 57.376C39.5621 57.456 39.9021 57.496 40.3261 57.496H41.3461C41.7701 57.496 42.1301 57.444 42.4261 57.34C42.7221 57.244 42.9501 57.104 43.1101 56.92C43.2701 56.736 43.3501 56.516 43.3501 56.26C43.3501 56.02 43.2701 55.84 43.1101 55.72C42.9501 55.608 42.6661 55.552 42.2581 55.552H39.4861C39.1501 55.48 38.8701 55.392 38.6461 55.288C38.4301 55.176 38.2701 55.04 38.1661 54.88C38.0701 54.72 38.0221 54.54 38.0221 54.34C38.0221 54.124 38.0741 53.928 38.1781 53.752C38.2901 53.568 38.4461 53.396 38.6461 53.236C38.8541 53.068 39.1021 52.912 39.3901 52.768L39.7501 53.02C39.5821 53.14 39.4421 53.256 39.3301 53.368C39.2261 53.472 39.1461 53.576 39.0901 53.68C39.0341 53.776 39.0061 53.884 39.0061 54.004C39.0061 54.188 39.0821 54.324 39.2341 54.412C39.3941 54.492 39.6261 54.532 39.9301 54.532H42.2701C42.7181 54.532 43.0941 54.588 43.3981 54.7C43.7021 54.812 43.9341 54.984 44.0941 55.216C44.2621 55.44 44.3461 55.732 44.3461 56.092C44.3461 56.572 44.2101 56.968 43.9381 57.28C43.6661 57.6 43.3021 57.836 42.8461 57.988C42.3901 58.14 41.8901 58.216 41.3461 58.216H40.2901Z" fill="black"/>
<path d="M49.3853 53.596C49.3853 53.404 49.3373 53.244 49.2413 53.116C49.1533 52.988 49.0293 52.884 48.8693 52.804C48.7093 52.724 48.5253 52.66 48.3173 52.612C48.1173 52.556 47.9093 52.504 47.6933 52.456C47.4293 52.392 47.1693 52.32 46.9133 52.24C46.6573 52.16 46.4253 52.052 46.2173 51.916C46.0093 51.78 45.8413 51.604 45.7133 51.388C45.5933 51.164 45.5333 50.888 45.5333 50.56C45.5333 50.192 45.6253 49.872 45.8093 49.6C45.9933 49.32 46.2613 49.104 46.6133 48.952C46.9653 48.8 47.3893 48.724 47.8853 48.724C48.2773 48.724 48.6173 48.748 48.9053 48.796C49.2013 48.844 49.4453 48.9 49.6373 48.964C49.8373 49.028 49.9853 49.088 50.0813 49.144V50.656H49.0253V49.408C49.1053 49.408 49.1733 49.42 49.2293 49.444C49.2933 49.468 49.3413 49.504 49.3733 49.552C49.4133 49.592 49.4413 49.648 49.4573 49.72C49.4813 49.792 49.4893 49.872 49.4813 49.96C49.3853 49.848 49.2573 49.752 49.0973 49.672C48.9373 49.592 48.7533 49.536 48.5453 49.504C48.3453 49.464 48.1253 49.444 47.8853 49.444C47.4133 49.444 47.0653 49.532 46.8413 49.708C46.6253 49.884 46.5173 50.124 46.5173 50.428C46.5173 50.628 46.5613 50.792 46.6493 50.92C46.7453 51.048 46.8733 51.152 47.0333 51.232C47.1933 51.312 47.3773 51.384 47.5853 51.448C47.8013 51.504 48.0253 51.556 48.2573 51.604C48.5133 51.66 48.7693 51.732 49.0253 51.82C49.2813 51.9 49.5093 52.008 49.7093 52.144C49.9173 52.28 50.0813 52.456 50.2013 52.672C50.3293 52.888 50.3933 53.16 50.3933 53.488C50.3933 53.864 50.2973 54.2 50.1053 54.496C49.9133 54.784 49.6293 55.012 49.2533 55.18C48.8773 55.34 48.4133 55.42 47.8613 55.42C47.4613 55.42 47.1013 55.392 46.7813 55.336C46.4693 55.288 46.1893 55.22 45.9413 55.132C45.7013 55.036 45.4933 54.936 45.3173 54.832V53.26H46.3973V54.916C46.2693 54.852 46.1693 54.788 46.0973 54.724C46.0333 54.66 45.9893 54.596 45.9653 54.532C45.9413 54.468 45.9293 54.4 45.9293 54.328C45.9293 54.256 45.9373 54.184 45.9533 54.112C46.0813 54.232 46.2373 54.336 46.4213 54.424C46.6133 54.512 46.8293 54.584 47.0693 54.64C47.3093 54.688 47.5733 54.712 47.8613 54.712C48.1973 54.712 48.4773 54.672 48.7013 54.592C48.9253 54.504 49.0933 54.38 49.2053 54.22C49.3253 54.052 49.3853 53.844 49.3853 53.596Z" fill="black"/>
</svg>
