<svg width="48" height="60" viewBox="0 0 48 60" fill="none" xmlns="http://www.w3.org/2000/svg">
<rect width="48" height="60" fill="white"/>
<path d="M23.1559 15.9669C23.9184 15.2749 25.0816 15.2749 25.8441 15.9669L32.5941 22.093C33.0118 22.4721 33.25 23.0099 33.25 23.574V34.7206C33.25 35.6871 32.4665 36.4706 31.5 36.4706V36.4706C30.5335 36.4706 29.75 35.6871 29.75 34.7206V27.8824C29.75 26.7778 28.8546 25.8824 27.75 25.8824H21.25C20.1454 25.8824 19.25 26.7778 19.25 27.8824V34.7206C19.25 35.6871 18.4665 36.4706 17.5 36.4706V36.4706C16.5335 36.4706 15.75 35.6871 15.75 34.7206V23.574C15.75 23.0099 15.9882 22.4721 16.4059 22.093L23.1559 15.9669ZM25.8441 11.2199C25.0816 10.5279 23.9184 10.5279 23.1559 11.2199L9.80468 23.3369C8.81438 24.2357 9.45019 25.8824 10.7875 25.8824V25.8824C11.5952 25.8824 12.25 26.5371 12.25 27.3448V38C12.25 39.1046 13.1454 40 14.25 40H20.75C21.8546 40 22.75 39.1046 22.75 38V31.1618C22.75 30.1953 23.5335 29.4118 24.5 29.4118V29.4118C25.4665 29.4118 26.25 30.1953 26.25 31.1618V38C26.25 39.1046 27.1454 40 28.25 40H34.75C35.8546 40 36.75 39.1046 36.75 38V27.3448C36.75 26.5371 37.4048 25.8824 38.2125 25.8824V25.8824C39.5498 25.8824 40.1856 24.2357 39.1953 23.3369L25.8441 11.2199Z" fill="black"/>
<path d="M7.956 51.768H13.02V52.488H7.956V51.768ZM6 56.52V55.86H6.132C6.428 55.86 6.672 55.832 6.864 55.776C7.056 55.72 7.152 55.604 7.152 55.428V49.08C7.152 48.904 7.056 48.788 6.864 48.732C6.672 48.676 6.428 48.648 6.132 48.648H6V48H9.42V48.648H9.312C9.2 48.648 9.08 48.652 8.952 48.66C8.832 48.66 8.72 48.668 8.616 48.684C8.512 48.692 8.428 48.704 8.364 48.72C8.3 48.728 8.268 48.744 8.268 48.768V55.752C8.268 55.776 8.3 55.796 8.364 55.812C8.428 55.82 8.512 55.832 8.616 55.848C8.72 55.856 8.832 55.86 8.952 55.86C9.08 55.86 9.2 55.86 9.312 55.86H9.42V56.52H6ZM11.556 56.52V55.872H11.664C11.776 55.872 11.892 55.868 12.012 55.86C12.14 55.852 12.256 55.844 12.36 55.836C12.464 55.828 12.548 55.82 12.612 55.812C12.676 55.796 12.708 55.776 12.708 55.752V48.768C12.708 48.744 12.676 48.728 12.612 48.72C12.548 48.704 12.464 48.692 12.36 48.684C12.256 48.668 12.14 48.66 12.012 48.66C11.892 48.652 11.776 48.648 11.664 48.648H11.556V48H14.976V48.648H14.844C14.548 48.648 14.304 48.676 14.112 48.732C13.92 48.788 13.824 48.904 13.824 49.08V55.428C13.824 55.604 13.92 55.72 14.112 55.776C14.304 55.832 14.548 55.86 14.844 55.86H14.976V56.52H11.556Z" fill="black"/>
<path d="M22.5213 53.304C22.5213 53.984 22.3853 54.576 22.1133 55.08C21.8493 55.584 21.4733 55.972 20.9853 56.244C20.5053 56.516 19.9413 56.652 19.2933 56.652C18.6373 56.652 18.0653 56.516 17.5773 56.244C17.0973 55.972 16.7213 55.584 16.4493 55.08C16.1853 54.576 16.0533 53.984 16.0533 53.304C16.0533 52.792 16.1293 52.332 16.2813 51.924C16.4333 51.508 16.6533 51.156 16.9413 50.868C17.2293 50.572 17.5693 50.348 17.9613 50.196C18.3613 50.036 18.8053 49.956 19.2933 49.956C19.7813 49.956 20.2213 50.036 20.6133 50.196C21.0053 50.348 21.3453 50.572 21.6333 50.868C21.9213 51.156 22.1413 51.508 22.2933 51.924C22.4453 52.332 22.5213 52.792 22.5213 53.304ZM17.1813 53.304C17.1813 53.88 17.2613 54.364 17.4213 54.756C17.5813 55.148 17.8173 55.444 18.1293 55.644C18.4413 55.836 18.8293 55.932 19.2933 55.932C19.7573 55.932 20.1453 55.836 20.4573 55.644C20.7693 55.444 21.0013 55.148 21.1533 54.756C21.3133 54.364 21.3933 53.88 21.3933 53.304C21.3933 52.744 21.3133 52.272 21.1533 51.888C21.0013 51.496 20.7693 51.2 20.4573 51C20.1453 50.792 19.7573 50.688 19.2933 50.688C18.8293 50.688 18.4413 50.792 18.1293 51C17.8173 51.2 17.5813 51.496 17.4213 51.888C17.2613 52.272 17.1813 52.744 17.1813 53.304Z" fill="black"/>
<path d="M23.5985 56.52V55.944H23.6345C23.9465 55.944 24.1905 55.9 24.3665 55.812C24.5505 55.724 24.6425 55.544 24.6425 55.272V51.264C24.6425 51.144 24.6065 51.056 24.5345 51C24.4705 50.936 24.3705 50.884 24.2345 50.844C24.0985 50.804 23.9265 50.764 23.7185 50.724L23.5985 50.7V50.076H25.5065L25.6505 51.432L25.7105 51.504V55.824C25.7105 55.848 25.7585 55.872 25.8545 55.896C25.9505 55.912 26.0625 55.924 26.1905 55.932C26.3265 55.94 26.4465 55.944 26.5505 55.944H26.5985V56.52H23.5985ZM30.4145 56.52H27.5705V55.944H27.6065C27.7185 55.944 27.8385 55.94 27.9665 55.932C28.1025 55.924 28.2185 55.912 28.3145 55.896C28.4105 55.872 28.4585 55.848 28.4585 55.824V51.9C28.4585 51.644 28.4305 51.432 28.3745 51.264C28.3185 51.088 28.2265 50.96 28.0985 50.88C27.9705 50.792 27.7905 50.748 27.5585 50.748C27.3105 50.748 27.0745 50.8 26.8505 50.904C26.6265 51.008 26.4025 51.164 26.1785 51.372C25.9545 51.572 25.7225 51.824 25.4825 52.128L25.4945 51.432C25.7265 51.12 25.9585 50.856 26.1905 50.64C26.4305 50.416 26.6865 50.248 26.9585 50.136C27.2305 50.016 27.5265 49.956 27.8465 49.956C28.1985 49.956 28.4985 50.024 28.7465 50.16C29.0025 50.288 29.1945 50.488 29.3225 50.76C29.4585 51.024 29.5265 51.36 29.5265 51.768V55.824C29.5265 55.848 29.5705 55.872 29.6585 55.896C29.7545 55.912 29.8705 55.924 30.0065 55.932C30.1425 55.94 30.2665 55.944 30.3785 55.944H30.4145V56.52ZM34.3985 56.52H31.3865V55.944H31.4345C31.5465 55.944 31.6665 55.94 31.7945 55.932C31.9225 55.924 32.0305 55.912 32.1185 55.896C32.2145 55.872 32.2625 55.848 32.2625 55.824V51.9C32.2625 51.644 32.2345 51.432 32.1785 51.264C32.1225 51.088 32.0305 50.96 31.9025 50.88C31.7745 50.792 31.5985 50.748 31.3745 50.748C31.1265 50.748 30.8865 50.8 30.6545 50.904C30.4305 51.008 30.2065 51.164 29.9825 51.372C29.7665 51.572 29.5385 51.824 29.2985 52.128V51.432C29.5385 51.12 29.7745 50.856 30.0065 50.64C30.2465 50.416 30.4985 50.248 30.7625 50.136C31.0345 50.016 31.3305 49.956 31.6505 49.956C32.0105 49.956 32.3145 50.024 32.5625 50.16C32.8105 50.288 32.9985 50.488 33.1265 50.76C33.2625 51.024 33.3305 51.36 33.3305 51.768V55.272C33.3305 55.544 33.4225 55.724 33.6065 55.812C33.7905 55.9 34.0385 55.944 34.3505 55.944H34.3985V56.52Z" fill="black"/>
<path d="M36.3757 53.364C36.3757 53.828 36.4277 54.224 36.5317 54.552C36.6437 54.88 36.7998 55.144 36.9998 55.344C37.1998 55.544 37.4278 55.692 37.6838 55.788C37.9478 55.884 38.2318 55.932 38.5358 55.932C38.8718 55.932 39.1638 55.872 39.4118 55.752C39.6598 55.632 39.8717 55.48 40.0477 55.296C40.2317 55.112 40.3878 54.916 40.5158 54.708L41.0918 55.176C40.9398 55.456 40.7397 55.712 40.4917 55.944C40.2437 56.168 39.9517 56.344 39.6157 56.472C39.2877 56.592 38.9197 56.652 38.5117 56.652C37.9037 56.652 37.3558 56.524 36.8678 56.268C36.3798 56.012 35.9918 55.636 35.7038 55.14C35.4238 54.644 35.2838 54.048 35.2838 53.352C35.2838 52.672 35.4117 52.08 35.6677 51.576C35.9317 51.064 36.2878 50.668 36.7358 50.388C37.1918 50.1 37.7117 49.956 38.2957 49.956C38.7677 49.956 39.1757 50.032 39.5197 50.184C39.8637 50.336 40.1518 50.564 40.3838 50.868C40.6158 51.172 40.7918 51.552 40.9118 52.008C41.0318 52.464 41.0918 52.996 41.0918 53.604H36.1238V52.908H40.2998L39.9878 53.172C39.9718 52.716 39.9278 52.332 39.8558 52.02C39.7918 51.7 39.6918 51.444 39.5558 51.252C39.4278 51.052 39.2598 50.908 39.0518 50.82C38.8438 50.732 38.5917 50.688 38.2957 50.688C38.0157 50.688 37.7558 50.744 37.5158 50.856C37.2838 50.96 37.0797 51.124 36.9037 51.348C36.7357 51.572 36.6037 51.852 36.5077 52.188C36.4197 52.524 36.3757 52.916 36.3757 53.364Z" fill="black"/>
</svg>
