<svg width="48" height="60" viewBox="0 0 48 60" fill="none" xmlns="http://www.w3.org/2000/svg">
<rect width="48" height="60" fill="white"/>
<path d="M33.1458 10H15.0208C13.3594 10 12 11.35 12 13V37C12 38.65 13.3594 40 15.0208 40H33.1458C34.8073 40 36.1667 38.65 36.1667 37V13C36.1667 11.35 34.8073 10 33.1458 10ZM19.5521 14C19.5521 13.4477 19.9998 13 20.5521 13H21.5729C22.1252 13 22.5729 13.4477 22.5729 14V19.1293C22.5729 19.6953 21.9276 20.0193 21.4736 19.6812V19.6812C21.2296 19.4995 20.8954 19.4995 20.6514 19.6812V19.6812C20.1974 20.0193 19.5521 19.6953 19.5521 19.1293V14ZM33.1458 36C33.1458 36.5523 32.6981 37 32.1458 37H16.0208C15.4685 37 15.0208 36.5523 15.0208 36V13.7552C15.0208 13.3381 15.359 13 15.776 13V13C16.1931 13 16.5312 13.3381 16.5312 13.7552V24.5083C16.5312 25.3308 17.4689 25.8016 18.1286 25.3103L20.4652 23.5699C20.8196 23.3059 21.3054 23.3059 21.6598 23.5699L23.9964 25.3103C24.6561 25.8016 25.5937 25.3308 25.5937 24.5083V14C25.5937 13.4477 26.0415 13 26.5937 13H32.1458C32.6981 13 33.1458 13.4477 33.1458 14V36Z" fill="black"/>
<path d="M34.4539 53.132C34.4539 53.596 34.5059 53.992 34.6099 54.32C34.7219 54.648 34.8779 54.912 35.0779 55.112C35.2779 55.312 35.5059 55.46 35.7619 55.556C36.0259 55.652 36.3099 55.7 36.6139 55.7C36.9499 55.7 37.2419 55.64 37.4899 55.52C37.7379 55.4 37.9499 55.248 38.1259 55.064C38.3099 54.88 38.4659 54.684 38.5939 54.476L39.1699 54.944C39.0179 55.224 38.8179 55.48 38.5699 55.712C38.3219 55.936 38.0299 56.112 37.6939 56.24C37.3659 56.36 36.9979 56.42 36.5899 56.42C35.9819 56.42 35.4339 56.292 34.9459 56.036C34.4579 55.78 34.0699 55.404 33.7819 54.908C33.5019 54.412 33.3619 53.816 33.3619 53.12C33.3619 52.44 33.4899 51.848 33.7459 51.344C34.0099 50.832 34.3659 50.436 34.8139 50.156C35.2699 49.868 35.7899 49.724 36.3739 49.724C36.8459 49.724 37.2539 49.8 37.5979 49.952C37.9419 50.104 38.2299 50.332 38.4619 50.636C38.6939 50.94 38.8699 51.32 38.9899 51.776C39.1099 52.232 39.1699 52.764 39.1699 53.372H34.2019V52.676H38.3779L38.0659 52.94C38.0499 52.484 38.0059 52.1 37.9339 51.788C37.8699 51.468 37.7699 51.212 37.6339 51.02C37.5059 50.82 37.3379 50.676 37.1299 50.588C36.9219 50.5 36.6699 50.456 36.3739 50.456C36.0939 50.456 35.8339 50.512 35.5939 50.624C35.3619 50.728 35.1579 50.892 34.9819 51.116C34.8139 51.34 34.6819 51.62 34.5859 51.956C34.4979 52.292 34.4539 52.684 34.4539 53.132Z" fill="black"/>
<path d="M31.4181 47.192V55.1C31.4181 55.348 31.5101 55.512 31.6941 55.592C31.8781 55.672 32.1261 55.712 32.4381 55.712H32.4741V56.288H29.3061V55.712H29.3541C29.6661 55.712 29.9101 55.672 30.0861 55.592C30.2701 55.512 30.3621 55.348 30.3621 55.1V48.38C30.3621 48.26 30.3261 48.172 30.2541 48.116C30.1901 48.052 30.0901 48 29.9541 47.96C29.8181 47.92 29.6421 47.88 29.4261 47.84L29.3061 47.816V47.192H31.4181Z" fill="black"/>
<path d="M25.239 56.42C24.895 56.42 24.583 56.36 24.303 56.24C24.023 56.12 23.767 55.948 23.535 55.724C23.311 55.492 23.099 55.212 22.899 54.884L22.935 54.116C23.143 54.46 23.359 54.752 23.583 54.992C23.815 55.224 24.059 55.4 24.315 55.52C24.579 55.632 24.871 55.688 25.191 55.688C25.503 55.688 25.775 55.632 26.007 55.52C26.247 55.4 26.443 55.228 26.595 55.004C26.755 54.772 26.875 54.492 26.955 54.164C27.035 53.836 27.075 53.46 27.075 53.036C27.075 52.62 27.039 52.256 26.967 51.944C26.895 51.624 26.783 51.356 26.631 51.14C26.487 50.916 26.299 50.748 26.067 50.636C25.843 50.524 25.575 50.468 25.263 50.468C24.927 50.468 24.623 50.528 24.351 50.648C24.079 50.76 23.827 50.932 23.595 51.164C23.363 51.396 23.139 51.692 22.923 52.052L22.899 51.32C23.115 50.984 23.339 50.696 23.571 50.456C23.811 50.216 24.075 50.036 24.363 49.916C24.651 49.788 24.983 49.724 25.359 49.724C25.959 49.724 26.471 49.864 26.895 50.144C27.319 50.424 27.643 50.812 27.867 51.308C28.091 51.796 28.203 52.372 28.203 53.036C28.203 53.692 28.083 54.276 27.843 54.788C27.611 55.292 27.275 55.692 26.835 55.988C26.395 56.276 25.863 56.42 25.239 56.42ZM22.059 48.38C22.059 48.26 22.023 48.172 21.951 48.116C21.887 48.052 21.787 48 21.651 47.96C21.515 47.92 21.339 47.88 21.123 47.84L21.003 47.816V47.192H23.127V54.836L23.067 54.92L22.779 56.432H22.059V48.38Z" fill="black"/>
<path d="M18.7235 48.524C18.4915 48.524 18.3035 48.46 18.1595 48.332C18.0155 48.204 17.9435 48.012 17.9435 47.756C17.9435 47.508 18.0155 47.32 18.1595 47.192C18.3035 47.064 18.4915 47 18.7235 47C18.9475 47 19.1315 47.064 19.2755 47.192C19.4275 47.32 19.5035 47.508 19.5035 47.756C19.5035 48.012 19.4275 48.204 19.2755 48.332C19.1315 48.46 18.9475 48.524 18.7235 48.524ZM19.3355 49.844V55.1C19.3355 55.348 19.4275 55.512 19.6115 55.592C19.7955 55.672 20.0435 55.712 20.3555 55.712H20.3915V56.288H17.2235V55.712H17.2595C17.5715 55.712 17.8195 55.672 18.0035 55.592C18.1875 55.512 18.2795 55.348 18.2795 55.1V51.032C18.2795 50.856 18.2035 50.74 18.0515 50.684C17.8995 50.62 17.6635 50.556 17.3435 50.492L17.2235 50.468V49.844H19.3355Z" fill="black"/>
<path d="M12.852 47.768C13.292 47.768 13.684 47.816 14.028 47.912C14.372 48 14.66 48.136 14.892 48.32C15.124 48.504 15.3 48.732 15.42 49.004C15.548 49.276 15.612 49.584 15.612 49.928C15.612 50.304 15.512 50.64 15.312 50.936C15.12 51.232 14.828 51.464 14.436 51.632C14.044 51.792 13.56 51.872 12.984 51.872L13.524 51.536V52.076L13.032 51.74C13.672 51.748 14.208 51.844 14.64 52.028C15.08 52.204 15.412 52.452 15.636 52.772C15.868 53.084 15.984 53.46 15.984 53.9C15.984 54.284 15.916 54.624 15.78 54.92C15.644 55.216 15.448 55.468 15.192 55.676C14.936 55.876 14.62 56.028 14.244 56.132C13.876 56.236 13.452 56.288 12.972 56.288H9V55.628H9.132C9.428 55.628 9.672 55.6 9.864 55.544C10.056 55.488 10.152 55.372 10.152 55.196V48.848C10.152 48.672 10.056 48.556 9.864 48.5C9.672 48.444 9.428 48.416 9.132 48.416H9V47.768H12.852ZM10.896 51.476H12.828C13.22 51.476 13.536 51.416 13.776 51.296C14.024 51.176 14.2 51 14.304 50.768C14.416 50.536 14.472 50.26 14.472 49.94C14.472 49.628 14.412 49.364 14.292 49.148C14.18 48.932 14.004 48.768 13.764 48.656C13.532 48.536 13.22 48.476 12.828 48.476H11.268V55.568H12.948C13.38 55.568 13.732 55.504 14.004 55.376C14.284 55.248 14.488 55.06 14.616 54.812C14.752 54.556 14.82 54.248 14.82 53.888C14.82 53.528 14.752 53.22 14.616 52.964C14.48 52.708 14.268 52.512 13.98 52.376C13.7 52.24 13.332 52.172 12.876 52.172H10.896V51.476Z" fill="black"/>
</svg>
