<svg width="203" height="80" viewBox="0 0 203 80" fill="none" xmlns="http://www.w3.org/2000/svg">
<path d="M19.6942 41.9886C19.6942 45.3295 19.2283 48.2273 18.2965 50.6818C16.9556 54.2045 14.8988 55.9659 12.1261 55.9659H5.13743C3.56925 55.9659 2.03516 57.375 0.535156 60.1932V53.4432C1.96697 52.7159 3.04652 52.3523 3.77379 52.3523C4.54652 52.3523 5.68288 52.4659 7.18288 52.6932C8.70561 52.8977 9.85334 53 10.6261 53C13.9897 53 15.6715 49.2841 15.6715 41.8523C15.6715 38.4432 15.1602 36.4432 14.1374 35.8523V45.1591C14.1374 50.2045 12.2965 52.7273 8.6147 52.7273C4.8647 52.7273 2.9897 49.3636 2.9897 42.6364C2.9897 38.7955 3.68288 35.9886 5.06925 34.2159V25.2159H17.1715V28.0795H14.1374V33.125H14.4442C16.3761 33.125 17.7965 34.1932 18.7056 36.3295C19.3647 37.875 19.6942 39.7614 19.6942 41.9886ZM10.4897 33.125V28.0795H8.37607V33.125H10.4897ZM10.4897 46.7955V35.7159H8.95561C7.66016 35.7159 7.01243 38.0909 7.01243 42.8409C7.01243 47.6364 7.76243 50.0341 9.26243 50.0341C10.0806 50.0341 10.4897 48.9545 10.4897 46.7955ZM37.3192 36.8068C37.3192 41.1705 36.8192 44.8409 35.8192 47.8182C34.6147 51.3636 32.9556 53.1364 30.842 53.1364H21.842V25.2159H25.4556V49.1136H27.3988V25.2159H32.0011C33.9102 25.2159 35.3533 26.7614 36.3306 29.8523C36.9897 32.0341 37.3192 34.3523 37.3192 36.8068ZM33.5011 38.5114C33.5011 31.8523 32.5692 28.3295 30.7056 27.9432V50.1364C32.5692 48.6364 33.5011 44.7614 33.5011 38.5114ZM33.7951 24.9091L33.8974 28.1136L31.9201 27.7045C29.1474 27.1364 27.761 25.1591 27.761 21.7727C27.761 16.9545 30.2269 14.5455 35.1587 14.5455C40.4996 14.5455 43.1701 18.1932 43.1701 25.4886V53.0682H39.2837V25.7955C39.2837 24.0227 39.0224 22.3864 38.4996 20.8864C37.7951 18.8636 36.7496 17.8523 35.3633 17.8523C33.636 17.8523 32.4996 18.3182 31.9542 19.25C31.6587 19.75 31.511 20.6591 31.511 21.9773C31.511 24.0682 32.2724 25.0455 33.7951 24.9091ZM66.9208 34.9318C66.9208 47.0227 64.9094 53.0682 60.8867 53.0682H60.3754C60.2844 55.7955 60.8867 57.1591 62.1822 57.1591C63.1367 57.1591 63.8526 56.3523 64.3299 54.7386V58.8977C63.5572 59.6705 62.864 60.0568 62.2504 60.0568C60.7049 60.0568 59.5231 59.2614 58.7049 57.6705C58.0004 60.9432 55.9208 62.5795 52.4663 62.5795C47.5117 62.5795 45.0344 56.8864 45.0344 45.5C45.0344 37.7727 46.9549 33.4091 50.7958 32.4091V35.5795C49.2958 37.9659 48.5458 41.5909 48.5458 46.4545C48.5458 54.8409 49.9663 59.0341 52.8072 59.0341C54.5799 59.0341 55.8526 57.0455 56.6254 53.0682H51.3754V25.2159H55.0572V49.6932H56.8981V25.2159H62.0117C63.7163 25.2159 65.0231 26.4886 65.9322 29.0341C66.5913 30.8977 66.9208 32.8636 66.9208 34.9318ZM62.8981 37.8636C62.8981 32.4091 62.1254 29.1705 60.5799 28.1477V49.625C61.2844 49.2841 61.864 47.8182 62.3185 45.2273C62.7049 43 62.8981 40.5455 62.8981 37.8636ZM55.1488 17.1705C55.7624 16.4886 56.5465 16.1477 57.5011 16.1477C58.4329 16.1477 59.217 16.4659 59.8533 17.1023C60.4897 17.7386 60.8079 18.5227 60.8079 19.4545C60.8079 20.3636 60.4897 21.1477 59.8533 21.8068C59.1942 22.4432 58.4102 22.7614 57.5011 22.7614C56.5692 22.7614 55.7852 22.4432 55.1488 21.8068C54.5124 21.1705 54.1942 20.3864 54.1942 19.4545C54.1942 18.5909 54.5124 17.8295 55.1488 17.1705ZM96.3945 40.9659C96.3945 49.375 94.3832 53.5795 90.3604 53.5795C87.3604 53.5795 85.2354 51.2045 83.9854 46.4545C83.2354 43.5227 82.8604 39.9886 82.8604 35.8523C82.8604 23.8523 85.5536 17.8523 90.94 17.8523C92.6673 17.8523 93.9741 19.0455 94.8604 21.4318C95.4968 23.1591 95.815 25.0682 95.815 27.1591C95.815 29.9318 95.19 32.2614 93.94 34.1477C95.5763 35.3295 96.3945 37.6023 96.3945 40.9659ZM92.5082 26.6477C92.5082 23.7159 92.1786 21.9886 91.5195 21.4659C90.9286 22.8068 90.6332 24.4886 90.6332 26.5114C90.6332 30.0568 90.9968 31.8295 91.7241 31.8295C92.2468 31.8295 92.5082 30.1023 92.5082 26.6477ZM89.1332 35C87.7923 33.75 87.1218 31.7386 87.1218 28.9659C87.1218 27.4659 87.2127 26.0682 87.3945 24.7727C86.6218 27.2273 86.2354 31.2614 86.2354 36.875C86.2354 44.3977 87.1559 48.7614 88.9968 49.9659C88.1332 48.2386 87.7013 45.8409 87.7013 42.7727C87.7013 39.2273 88.1786 36.6364 89.1332 35ZM92.9513 42.4318C92.9513 38.6364 92.565 36.7386 91.7923 36.7386C91.3604 36.7386 91.1445 38.5114 91.1445 42.0568C91.1445 44.6023 91.4513 46.8636 92.065 48.8409C92.6559 47.4318 92.9513 45.2955 92.9513 42.4318ZM116.792 53.2045H105.61V50.8523C104.905 52.625 104.042 53.5114 103.019 53.5114C101.155 53.5114 99.7461 51.9773 98.7915 48.9091C97.9734 46.3182 97.587 43.125 97.6325 39.3295C97.7234 29.7159 100.189 24.9091 105.03 24.9091C109.735 24.9091 112.087 29.6364 112.087 39.0909C112.087 43.5227 111.439 47.125 110.144 49.8977H113.042V25.2159H116.792V53.2045ZM108.439 38.8864C108.439 36 108.189 33.5341 107.689 31.4886C107.076 28.9886 106.167 27.7386 104.962 27.7386C103.576 27.7386 102.542 28.9545 101.86 31.3864C102.246 31.0227 102.632 30.8409 103.019 30.8409C104.542 30.8409 105.644 32.2727 106.326 35.1364C106.757 36.9318 106.973 38.9545 106.973 41.2045C106.973 44.7045 106.621 47.6023 105.917 49.8977H106.973C107.951 47.2159 108.439 43.5455 108.439 38.8864ZM103.326 42.6364C103.326 37.5 102.917 34.9318 102.098 34.9318C101.803 34.9318 101.485 36.8068 101.144 40.5568V40.8977C101.144 46.1932 101.655 48.8409 102.678 48.8409C103.11 48.8409 103.326 46.7727 103.326 42.6364ZM135.64 41.9886C135.64 45.3295 135.174 48.2273 134.242 50.6818C132.901 54.2045 130.844 55.9659 128.071 55.9659H121.083C119.515 55.9659 117.98 57.375 116.48 60.1932V53.4432C117.912 52.7159 118.992 52.3523 119.719 52.3523C120.492 52.3523 121.628 52.4659 123.128 52.6932C124.651 52.8977 125.799 53 126.571 53C129.935 53 131.617 49.2841 131.617 41.8523C131.617 38.4432 131.105 36.4432 130.083 35.8523V45.1591C130.083 50.2045 128.242 52.7273 124.56 52.7273C120.81 52.7273 118.935 49.3636 118.935 42.6364C118.935 38.7955 119.628 35.9886 121.015 34.2159V25.2159H133.117V28.0795H130.083V33.125H130.39C132.321 33.125 133.742 34.1932 134.651 36.3295C135.31 37.875 135.64 39.7614 135.64 41.9886ZM126.435 33.125V28.0795H124.321V33.125H126.435ZM126.435 46.7955V35.7159H124.901C123.605 35.7159 122.958 38.0909 122.958 42.8409C122.958 47.6364 123.708 50.0341 125.208 50.0341C126.026 50.0341 126.435 48.9545 126.435 46.7955ZM149.378 28.1477H147.23V53.1364H143.549V28.1477H141.537V53.1364H137.787V25.2159H149.378V28.1477ZM166.624 41.2045C166.624 43.8182 166.249 46.2727 165.499 48.5682C164.453 51.7727 162.885 53.375 160.794 53.375C160.181 53.375 159.613 53.1023 159.09 52.5568C158.272 53.2386 157.431 53.5795 156.567 53.5795C152.453 53.5795 150.363 50.0455 150.294 42.9773C150.249 39.2727 150.851 36.4205 152.101 34.4205V25.1477H164.272V28.0795H161.238V32.6818H162.533C163.942 32.6818 165.033 33.8182 165.806 36.0909C166.351 37.7273 166.624 39.4318 166.624 41.2045ZM157.624 32.6818V28.0795H155.613V32.8523L157.624 32.6818ZM157.624 47.4432V35.1364H156.84C155.908 35.1364 155.203 36.1818 154.726 38.2727C154.408 39.6591 154.249 41.0455 154.249 42.4318C154.249 47.4545 154.965 49.9659 156.397 49.9659C157.215 49.9659 157.624 49.125 157.624 47.4432ZM162.976 41.7841C162.976 40.625 162.863 39.3636 162.635 38C162.317 36 161.851 34.9773 161.238 34.9318V46.7273C161.238 47.9773 160.976 49.2727 160.453 50.6136C161.203 50.5 161.84 49.1818 162.363 46.6591C162.772 44.7045 162.976 43.0795 162.976 41.7841ZM184.202 36.8068C184.202 41.1705 183.702 44.8409 182.702 47.8182C181.498 51.3636 179.838 53.1364 177.725 53.1364H168.725V25.2159H172.338V49.1136H174.282V25.2159H178.884C180.793 25.2159 182.236 26.7614 183.213 29.8523C183.873 32.0341 184.202 34.3523 184.202 36.8068ZM180.384 38.5114C180.384 31.8523 179.452 28.3295 177.588 27.9432V50.1364C179.452 48.6364 180.384 44.7614 180.384 38.5114ZM201.78 36.8068C201.78 41.1705 201.28 44.8409 200.28 47.8182C199.076 51.3636 197.417 53.1364 195.303 53.1364H186.303V25.2159H189.917V49.1136H191.86V25.2159H196.462C198.371 25.2159 199.814 26.7614 200.792 29.8523C201.451 32.0341 201.78 34.3523 201.78 36.8068ZM197.962 38.5114C197.962 31.8523 197.03 28.3295 195.167 27.9432V50.1364C197.03 48.6364 197.962 44.7614 197.962 38.5114ZM189.938 17.1705C190.551 16.4886 191.336 16.1477 192.29 16.1477C193.222 16.1477 194.006 16.4659 194.642 17.1023C195.279 17.7386 195.597 18.5227 195.597 19.4545C195.597 20.3636 195.279 21.1477 194.642 21.8068C193.983 22.4432 193.199 22.7614 192.29 22.7614C191.358 22.7614 190.574 22.4432 189.938 21.8068C189.301 21.1705 188.983 20.3864 188.983 19.4545C188.983 18.5909 189.301 17.8295 189.938 17.1705Z" fill="black"/>
<path d="M20.8789 77V76.2617L21.834 76.0977V69.377L20.8789 69.2129V68.4688H23.9434V69.2129L22.9883 69.377V72.3242H27.0664V69.377L26.1113 69.2129V68.4688H27.0664H28.2207H29.1758V69.2129L28.2207 69.377V76.0977L29.1758 76.2617V77H26.1113V76.2617L27.0664 76.0977V73.2324H22.9883V76.0977L23.9434 76.2617V77H20.8789ZM37.2055 77.123C36.6547 77.123 36.1605 77.0176 35.723 76.8066C35.2855 76.5957 34.9125 76.2988 34.6039 75.916C34.2992 75.5293 34.0648 75.0723 33.9008 74.5449C33.7406 74.0176 33.6605 73.4355 33.6605 72.7988V72.6758C33.6605 72.043 33.7406 71.4629 33.9008 70.9355C34.0648 70.4043 34.2992 69.9453 34.6039 69.5586C34.9125 69.1719 35.2855 68.873 35.723 68.6621C36.1605 68.4512 36.6547 68.3457 37.2055 68.3457C37.7875 68.3457 38.2992 68.4512 38.7406 68.6621C39.182 68.873 39.5512 69.1719 39.848 69.5586C40.1488 69.9453 40.3754 70.4043 40.5277 70.9355C40.6801 71.4629 40.7563 72.043 40.7563 72.6758V72.7988C40.7563 73.4355 40.6801 74.0176 40.5277 74.5449C40.3754 75.0723 40.1488 75.5293 39.848 75.916C39.5512 76.2988 39.182 76.5957 38.7406 76.8066C38.2992 77.0176 37.7875 77.123 37.2055 77.123ZM37.2055 76.1621C37.7719 76.1621 38.2289 76.0215 38.5766 75.7402C38.9281 75.459 39.1859 75.0664 39.35 74.5625C39.5141 74.0547 39.5961 73.4668 39.5961 72.7988V72.6641C39.5961 72 39.5121 71.418 39.3441 70.918C39.1801 70.4141 38.9223 70.0215 38.5707 69.7402C38.2191 69.4551 37.7641 69.3125 37.2055 69.3125C36.6938 69.3125 36.2602 69.4551 35.9047 69.7402C35.5492 70.0254 35.2797 70.4199 35.0961 70.9238C34.9125 71.4238 34.8207 72.0039 34.8207 72.6641V72.7988C34.8207 73.4629 34.9125 74.0488 35.0961 74.5566C35.2797 75.0605 35.5492 75.4551 35.9047 75.7402C36.2602 76.0215 36.6938 76.1621 37.2055 76.1621ZM45.2469 77V76.2617L46.202 76.0977V69.377L45.2469 69.2129V68.4688H46.202H47.3563H48.3113V69.2129L47.3563 69.377V76.1152H50.3738L50.5086 74.7676H51.3934V77H45.2469ZM56.8098 77V76.2617L57.7648 76.0977V73.8945L55.1398 69.3242L54.4367 69.2129V68.4688H57.3781V69.2129L56.4055 69.3242L58.216 72.6758L58.3391 72.9043L58.3449 72.8926L58.4621 72.6758L60.3605 69.3242L59.3527 69.2129V68.4688H62.2355V69.2129L61.4914 69.3242L58.9133 73.8066V76.0977L59.8684 76.2617V77H56.8098ZM73.2852 77V76.2617L74.2402 76.0977V69.377L73.2852 69.2129V68.4688H74.2402H76.9648C77.8555 68.4688 78.5508 68.6621 79.0508 69.0488C79.5547 69.4316 79.8066 70.0078 79.8066 70.7773C79.8066 71.1562 79.6855 71.4961 79.4434 71.7969C79.2051 72.0938 78.8887 72.3145 78.4941 72.459C78.8379 72.5293 79.1328 72.668 79.3789 72.875C79.625 73.0781 79.8145 73.3281 79.9473 73.625C80.084 73.918 80.1523 74.2402 80.1523 74.5918C80.1523 75.373 79.8984 75.9707 79.3906 76.3848C78.8828 76.7949 78.1953 77 77.3281 77H73.2852ZM75.3945 76.0977H77.3281C77.8555 76.0977 78.2637 75.9688 78.5527 75.7109C78.8457 75.4492 78.9922 75.0801 78.9922 74.6035C78.9922 74.1035 78.8691 73.7109 78.623 73.4258C78.3809 73.1406 78.0078 72.998 77.5039 72.998H75.3945V76.0977ZM75.3945 72.0957H77.2637C77.6777 72.0957 78.0117 71.9766 78.2656 71.7383C78.5234 71.4961 78.6523 71.168 78.6523 70.7539C78.6523 70.293 78.5078 69.9492 78.2188 69.7227C77.9297 69.4922 77.5117 69.377 76.9648 69.377H75.3945V72.0957ZM84.6312 77V76.2617L85.5863 76.0977V69.377L84.6312 69.2129V68.4688H87.6957V69.2129L86.7406 69.377V76.0977L87.6957 76.2617V77H84.6312ZM92.2508 77V76.2617L93.2059 76.0977V69.377L92.2508 69.2129V68.4688H93.2059H95.9305C96.8211 68.4688 97.5164 68.6621 98.0164 69.0488C98.5203 69.4316 98.7723 70.0078 98.7723 70.7773C98.7723 71.1562 98.6512 71.4961 98.409 71.7969C98.1707 72.0938 97.8543 72.3145 97.4598 72.459C97.8035 72.5293 98.0984 72.668 98.3445 72.875C98.5906 73.0781 98.7801 73.3281 98.9129 73.625C99.0496 73.918 99.118 74.2402 99.118 74.5918C99.118 75.373 98.8641 75.9707 98.3562 76.3848C97.8484 76.7949 97.1609 77 96.2937 77H92.2508ZM94.3602 76.0977H96.2937C96.8211 76.0977 97.2293 75.9688 97.5184 75.7109C97.8113 75.4492 97.9578 75.0801 97.9578 74.6035C97.9578 74.1035 97.8348 73.7109 97.5887 73.4258C97.3465 73.1406 96.9734 72.998 96.4695 72.998H94.3602V76.0977ZM94.3602 72.0957H96.2293C96.6434 72.0957 96.9773 71.9766 97.2312 71.7383C97.4891 71.4961 97.618 71.168 97.618 70.7539C97.618 70.293 97.4734 69.9492 97.1844 69.7227C96.8953 69.4922 96.4773 69.377 95.9305 69.377H94.3602V72.0957ZM103.597 77V76.2617L104.552 76.0977V69.377L103.597 69.2129V68.4688H104.552H105.706H106.661V69.2129L105.706 69.377V76.1152H108.724L108.859 74.7676H109.743V77H103.597ZM114.287 77V76.2617L115.242 76.0977V69.377L114.287 69.2129V68.4688H120.603V70.5195H119.677L119.548 69.3594H116.396V72.1367H119.543V73.0449H116.396V76.1328H119.736L119.865 74.9551H120.785V77H114.287ZM134.231 77V76.2617L135.186 76.0977V69.3418H133.252L133.082 70.5254H132.215V68.4688H139.305V70.5254H138.45L138.274 69.3418H136.34V76.0977L137.295 76.2617V77H134.231ZM142.495 77V76.2617L143.128 76.1738L146.11 68.4688H147.1L150.03 76.1738L150.657 76.2617V77H148.208V76.2617L148.852 76.1504L148.29 74.5801H144.874L144.294 76.1504L144.938 76.2617V77H142.495ZM145.231 73.6133H147.938L146.684 70.1445L146.614 69.9512H146.579L146.509 70.1445L145.231 73.6133ZM155.224 77V76.2617L156.179 76.0977V69.377L155.224 69.2129V68.4688H156.179H157.72L160.468 74.9434H160.503L163.163 68.4688H165.736V69.2129L164.78 69.377V76.0977L165.736 76.2617V77H162.671V76.2617L163.679 76.0977V73.625V70.0449L163.65 70.0391L160.878 76.6953H160.111L157.245 70.0508L157.216 70.0566L157.257 73.625V76.0977L158.288 76.2617V77H155.224ZM170.361 77V76.2617L171.316 76.0977V69.377L170.361 69.2129V68.4688H173.425V69.2129L172.47 69.377V76.0977L173.425 76.2617V77H170.361ZM177.98 77V76.2617L178.936 76.0977V69.377L177.98 69.2129V68.4688H178.936H180.09H181.045V69.2129L180.09 69.377V76.1152H183.107L183.242 74.7676H184.127V77H177.98Z" fill="black"/>
</svg>
