<svg width="34" height="34" viewBox="0 0 34 34" fill="none" xmlns="http://www.w3.org/2000/svg">
<path d="M17.0684 0C21.596 4.91769e-06 25.85 1.75128 29.0449 4.94727C32.2399 8.12627 34 12.3593 34 16.8643C33.9999 26.1461 26.3969 33.7109 17.0684 33.7109C14.2322 33.7109 11.4471 32.9973 8.96973 31.6543L0 34L2.3916 25.2617C0.922391 22.7118 0.136719 19.8215 0.136719 16.8467C0.136894 7.56483 7.73982 0 17.0684 0ZM11.0713 9.06055C10.7809 9.06062 10.3371 9.16324 9.94434 9.58789C9.56846 10.0129 8.47461 11.0334 8.47461 13.1074C8.47483 15.1701 9.97937 17.1651 10.1973 17.4541L10.2002 17.459C10.4052 17.748 13.1905 21.9984 17.4277 23.8174C18.4353 24.2592 19.221 24.5142 19.8359 24.7012C20.844 25.0242 21.7673 24.9731 22.502 24.8711C23.3221 24.752 25.0137 23.8511 25.3555 22.8652C25.7142 21.8794 25.7133 21.0465 25.5938 20.8594C25.4742 20.6724 25.2182 20.5868 24.791 20.3828C24.3634 20.1786 22.2791 19.1588 21.9033 19.0059C21.5106 18.87 21.2376 18.8023 20.9473 19.21C20.6568 19.635 19.8535 20.5874 19.6143 20.8594C19.3751 21.1481 19.1184 21.1819 18.6914 20.9609C18.264 20.7569 16.8976 20.2977 15.292 18.8701C14.0278 17.7482 13.1899 16.3714 12.9336 15.9463C12.6944 15.5213 12.9 15.3001 13.1221 15.0791C13.31 14.8921 13.5489 14.5856 13.7539 14.3477C13.9587 14.1099 14.0442 13.923 14.1807 13.6514C14.3173 13.3624 14.249 13.1239 14.1465 12.9199C14.0434 12.7146 13.1902 10.6417 12.8486 9.79199C12.5069 8.97599 12.1479 9.07755 11.8916 9.06055H11.0713Z" fill="black"/>
</svg>
